<svg xmlns="http://www.w3.org/2000/svg" width="37.214" height="39.366" viewBox="0 0 37.214 39.366">
  <defs>
    <style>
      .cls-1 {
        fill: #fff;
      }
    </style>
  </defs>
  <g id="组_792" data-name="组 792" transform="translate(-88.764 -64.009)">
    <path id="路径_5042" data-name="路径 5042" class="cls-1" d="M600.358,608.352a1.082,1.082,0,0,0-.7-.254,1.4,1.4,0,0,0-.947.394l-8.141,7.57-3.089-2.488a1.389,1.389,0,0,0-.929-.388,1.277,1.277,0,0,0-.758.258,1.118,1.118,0,0,0-.443,1.144,1.566,1.566,0,0,0,.215.561l3.818,5.2a1.459,1.459,0,0,0,1.1.607,1.322,1.322,0,0,0,1.089-.6L600.349,610C600.811,609.345,600.783,608.694,600.358,608.352Z" transform="translate(-474.708 -520.141)"/>
    <path id="路径_5043" data-name="路径 5043" class="cls-1" d="M109.957,100.272H92.38a.52.52,0,0,1-.515-.515V67.627a.516.516,0,0,1,.511-.513h26.935a.516.516,0,0,1,.508.511v17.6a1.552,1.552,0,1,0,3.1,0v-17.6a3.622,3.622,0,0,0-3.612-3.616H92.376a3.623,3.623,0,0,0-3.612,3.621V99.757a3.622,3.622,0,0,0,3.616,3.618h17.577a1.552,1.552,0,1,0,0-3.1Z"/>
    <path id="路径_5044" data-name="路径 5044" class="cls-1" d="M370.133,286.5H357.457a1.453,1.453,0,1,0,0,2.905h12.676a1.453,1.453,0,1,0,0-2.905Z" transform="translate(-255.477 -212.698)"/>
    <path id="路径_5045" data-name="路径 5045" class="cls-1" d="M252.968,287.8m-1.46,0a1.46,1.46,0,1,0,1.46-1.46A1.46,1.46,0,0,0,251.508,287.8Z" transform="translate(-155.581 -212.542)"/>
    <path id="路径_5046" data-name="路径 5046" class="cls-1" d="M371.585,466.952a1.453,1.453,0,0,0-1.453-1.453H357.457a1.453,1.453,0,0,0,0,2.905h12.676A1.453,1.453,0,0,0,371.585,466.952Z" transform="translate(-255.477 -383.819)"/>
    <path id="路径_5047" data-name="路径 5047" class="cls-1" d="M252.968,464.611m-1.46,0a1.46,1.46,0,1,0,1.46-1.46A1.46,1.46,0,0,0,251.508,464.611Z" transform="translate(-155.581 -381.574)"/>
    <path id="路径_5048" data-name="路径 5048" class="cls-1" d="M357.457,644.5a1.453,1.453,0,0,0,0,2.905h6.218a1.453,1.453,0,0,0,0-2.905Z" transform="translate(-255.477 -554.94)"/>
    <path id="路径_5049" data-name="路径 5049" class="cls-1" d="M252.968,641.425m-1.46,0a1.46,1.46,0,1,0,1.46-1.46A1.46,1.46,0,0,0,251.508,641.425Z" transform="translate(-155.581 -550.605)"/>
  </g>
</svg>
