<svg xmlns="http://www.w3.org/2000/svg" xmlns:xlink="http://www.w3.org/1999/xlink" width="99.76" height="44.791" viewBox="0 0 99.76 44.791">
  <defs>
    <style>
      .cls-1 {
        fill: url(#linear-gradient);
      }

      .cls-2 {
        fill: url(#linear-gradient-2);
      }

      .cls-3 {
        fill: #343434;
      }

      .cls-4 {
        fill: url(#linear-gradient-3);
      }

      .cls-5 {
        fill: #efd61d;
      }
    </style>
    <linearGradient id="linear-gradient" x1="0.522" y1="0.026" x2="0.501" y2="0.946" gradientUnits="objectBoundingBox">
      <stop offset="0" stop-color="#dab515"/>
      <stop offset="0.146" stop-color="#ac720d"/>
      <stop offset="0.343" stop-color="#dcc216"/>
      <stop offset="0.556" stop-color="#ba8d07"/>
      <stop offset="0.747" stop-color="#ddb718"/>
      <stop offset="0.865" stop-color="#b97f09"/>
      <stop offset="1" stop-color="#bf8b0e"/>
    </linearGradient>
    <linearGradient id="linear-gradient-2" x1="0.73" y1="0.088" x2="0.181" y2="1.074" gradientUnits="objectBoundingBox">
      <stop offset="0" stop-color="#edc61a"/>
      <stop offset="0.197" stop-color="#fff"/>
      <stop offset="0.371" stop-color="#ba8d07"/>
      <stop offset="0.517" stop-color="#ba8d07"/>
      <stop offset="0.736" stop-color="#f0d930"/>
      <stop offset="1" stop-color="#d8a511"/>
    </linearGradient>
    <linearGradient id="linear-gradient-3" x1="0.518" y1="0.03" x2="0.482" y2="0.949" gradientUnits="objectBoundingBox">
      <stop offset="0.567" stop-color="#dab515"/>
      <stop offset="0.899" stop-color="#ac720d"/>
    </linearGradient>
  </defs>
  <g id="组_781" data-name="组 781" transform="translate(-47.606 -100.346)">
    <path id="联合_28" data-name="联合 28" class="cls-1" d="M24.144,33.236l-.813-.349L15.322,21.01,24.144,4.139l-2.786-.078L5.649,33.158l-.812-.348L5.6,1.894l0-1.546L8.4,0l.812.349L9.132,15.283,17.642.349,29.677,0l.811.349L21.2,18.533,33.429,33.469ZM2.32,32.81,3.134.424l.31-.348.812.348V33.158L3.019,33.2Zm-1.508.348L0,32.81.813.424l.31-.348.813.348V33.158Z" transform="translate(48.961 101.153)"/>
    <path id="联合_29" data-name="联合 29" class="cls-2" d="M24.685,32.887,15.863,20.662,24.685,3.791,21.9,3.714,6.192,32.81,6.147,1.545,6.152,0h3.6L9.672,14.935,18.185,0H31.032L21.747,18.186,33.972,33.118ZM3.675,32.81V.077H4.8V32.81Zm-2.32,0V2.088L0,.077H2.477V32.81Z" transform="translate(47.606 101.153)"/>
    <path id="路径_4986" data-name="路径 4986" class="cls-3" d="M118.159,112.718c.013-.268.025-.483.031-.642s.015-.314.022-.46.012-.242.012-.283l-.065-.718q2.507.152,4.012.152h4.64V104.8l-.063-1.307-.066-1.353a8.815,8.815,0,0,0,2.337,0c-.043.611-.077,1.129-.1,1.55s-.031.812-.031,1.177v.609h4.292q.416,0,2.53-.11c-.029.306-.048.543-.056.711s-.015.323-.021.47a.943.943,0,0,0,.01.284l.067.72q-1.332-.11-2.507-.108H128.89v3.322h5.753q1.288,0,3.553-.152c-.043.3-.072.526-.086.686a2.319,2.319,0,0,0-.012.388c.007.1.039.44.1,1.029q-2.223-.152-3.575-.151H128.89v7.366c0,.552.012,1.075.041,1.569l.088,1.614a15.264,15.264,0,0,0-2.337,0c.041-.683.075-1.2.1-1.559s.031-.9.031-1.625v-7.366h-4.663Q120.643,112.567,118.159,112.718Zm12.018,2.587q.411-.348,1.569-1.461l4.511,4.1a15.426,15.426,0,0,0-1.829,1.593l-.437-.611a14.857,14.857,0,0,0-1.505-1.635q-1.089-1.069-1.5-1.4Z" transform="translate(-33.216 -0.845)"/>
    <path id="路径_4987" data-name="路径 4987" class="cls-3" d="M185.675,109.291q-1.611.088-3.55.174.044-.463.064-.732a3.013,3.013,0,0,0,.011-.458q-.012-.189-.075-1.123,2.527.174,4.466.174h4.164a10.33,10.33,0,0,0-.458-1.733,12.779,12.779,0,0,0-.764-1.514,14.955,14.955,0,0,0,2.334-.786l1.242,3.27a11.028,11.028,0,0,0-2.268.763h5.929q1.679,0,3.924-.174c-.042.325-.069.6-.075.821s-.013.373-.013.447.029.424.088,1.045q-3.117-.172-3.924-.174h-.24q-.414,1.985-.7,3.118a12.571,12.571,0,0,1-.841,2.308q-.555,1.178-.914,1.778a15.438,15.438,0,0,1-1.167,1.6,11.939,11.939,0,0,0,3.695,2.014,12.272,12.272,0,0,0,3.936.687h.652a5.423,5.423,0,0,0-1.437,2.224l-.151.631-.482-.173q-3.1-1.113-4.293-1.635a18.576,18.576,0,0,1-3.486-2.312,28.258,28.258,0,0,1-7.674,4.055l-.3.108a7.331,7.331,0,0,0-.654-1.122,6.092,6.092,0,0,0-1.132-1.079l.521-.087a17.052,17.052,0,0,0,4.24-1.276,19.006,19.006,0,0,0,3.586-2.036,33.067,33.067,0,0,1-2.2-3.27A22.308,22.308,0,0,1,185.675,109.291Zm2.136,0a24.858,24.858,0,0,0,1,3.15q.416.948.95,1.918a6.487,6.487,0,0,0,.773,1.209l.895,1.112a10.034,10.034,0,0,0,1.156-1.635c.245-.465.484-.983.718-1.558a13.094,13.094,0,0,0,.546-1.623l.325-1.547c.089-.436.145-.778.174-1.026Z" transform="translate(-63.075 -1.387)"/>
    <path id="路径_4988" data-name="路径 4988" class="cls-4" d="M89.579,129.937l-.736-.454,2.63-5.235,1.086-2.129.812.35Z" transform="translate(-19.415 -10.251)"/>
    <g id="组_778" data-name="组 778" transform="translate(84.942 125.167)">
      <path id="路径_4989" data-name="路径 4989" class="cls-3" d="M122.02,158.684c-.21.1-.425.2-.644.289A3.315,3.315,0,0,1,119.3,159a1.8,1.8,0,0,1-.866-.618,1.511,1.511,0,0,1-.278-.991,1.618,1.618,0,0,1,.234-.775,2.01,2.01,0,0,1,.543-.585,3.148,3.148,0,0,1,.759-.4q.428-.162.712-.239c.189-.053.5-.135.939-.246l.582-.151v-.219a.383.383,0,0,0-.135-.264.876.876,0,0,0-.378-.2,1.531,1.531,0,0,0-.515-.042,1.139,1.139,0,0,0-.59.2.762.762,0,0,0-.3.4l-.077.24H118.33c.039-.19.084-.374.135-.549a2.428,2.428,0,0,1,.3-.606,1.939,1.939,0,0,1,.555-.57,2.536,2.536,0,0,1,.831-.351,4.37,4.37,0,0,1,.9-.124,3.517,3.517,0,0,1,1.053.147,2.58,2.58,0,0,1,.827.387,1.418,1.418,0,0,1,.443.519,1.343,1.343,0,0,1,.135.521v3c0,.135.008.3.023.5a1.518,1.518,0,0,0,.061.39l.109.3-1.579.46Zm-.088-2.336c-.245.068-.486.136-.717.207s-.472.153-.715.252a2.264,2.264,0,0,0-.6.337c-.151.127-.216.242-.191.347a.4.4,0,0,0,.243.259.95.95,0,0,0,.531.062,2.129,2.129,0,0,0,.785-.24,1.271,1.271,0,0,0,.5-.458,1.034,1.034,0,0,0,.145-.512A.968.968,0,0,1,121.932,156.348Z" transform="translate(-118.158 -149.917)"/>
      <path id="路径_4990" data-name="路径 4990" class="cls-3" d="M132.6,150.73a3.861,3.861,0,0,1,.456-.294,1.942,1.942,0,0,1,.813-.167,2.587,2.587,0,0,1,1.142.212,2.278,2.278,0,0,1,.866.685,3.058,3.058,0,0,1,.522,1.031,4.135,4.135,0,0,1,.145,1.266,4.224,4.224,0,0,1-.211,1.228,2.69,2.69,0,0,1-.582.986,2.389,2.389,0,0,1-.863.6,2.529,2.529,0,0,1-1.051.169,1.937,1.937,0,0,1-.953-.206l-.285-.157.006.37h-1.57V147.3H132.6Zm0,3.672a3.618,3.618,0,0,0,.483.4,1.221,1.221,0,0,0,.715.188.962.962,0,0,0,.616-.179,1.255,1.255,0,0,0,.4-.549,2.4,2.4,0,0,0,.144-.955,2.242,2.242,0,0,0-.147-.8,1.178,1.178,0,0,0-.423-.539,1.121,1.121,0,0,0-.723-.186,1.031,1.031,0,0,0-.782.3l-.28.3Z" transform="translate(-124.221 -147.275)"/>
      <path id="路径_4991" data-name="路径 4991" class="cls-3" d="M144.6,147.3h1.565v1.621H144.6Zm0,3.019h1.565v6.133H144.6Z" transform="translate(-130.608 -147.275)"/>
      <path id="路径_4992" data-name="路径 4992" class="cls-3" d="M155.058,152.986l1.658-.006-2.009,6.134h-1.995l-1.961-6.128h1.676l1.288,4.4Z" transform="translate(-133.504 -149.948)"/>
      <path id="路径_4993" data-name="路径 4993" class="cls-3" d="M166.015,156.433c.017.138.038.285.065.439a1.289,1.289,0,0,0,.2.48,1,1,0,0,0,.457.376,1.476,1.476,0,0,0,.636.123,1.2,1.2,0,0,0,.656-.171.684.684,0,0,0,.327-.42l.064-.239h1.62c-.052.239-.121.5-.207.778a1.73,1.73,0,0,1-.5.762,2.292,2.292,0,0,1-.87.5,3.526,3.526,0,0,1-1.13.146,3.074,3.074,0,0,1-1.643-.424,2.2,2.2,0,0,1-.9-1.1,4.013,4.013,0,0,1-.26-1.427,4.81,4.81,0,0,1,.129-1.225,3.2,3.2,0,0,1,.464-.965,2.585,2.585,0,0,1,.927-.807,2.755,2.755,0,0,1,1.319-.328,2.66,2.66,0,0,1,1.579.475,2.278,2.278,0,0,1,.881,1.1,4.092,4.092,0,0,1,.233,1.2l.028.725Zm2.5-1.109a3.966,3.966,0,0,0-.149-.475,1.067,1.067,0,0,0-.319-.4.885.885,0,0,0-.574-.205,1.357,1.357,0,0,0-.587.106,1.34,1.34,0,0,0-.448.337,1.053,1.053,0,0,0-.25.424l-.064.213Z" transform="translate(-139.991 -149.924)"/>
      <path id="路径_4994" data-name="路径 4994" class="cls-3" d="M179.162,153.418c.139-.09.3-.182.47-.275a2.333,2.333,0,0,1,.841-.185,3.22,3.22,0,0,1,.953.081,2.19,2.19,0,0,1,.85.4,1.855,1.855,0,0,1,.535.621,1.879,1.879,0,0,1,.195.55,3.66,3.66,0,0,1,.033.549V159.1h-1.551V155.52a2.08,2.08,0,0,0-.055-.5.727.727,0,0,0-.315-.41,1.038,1.038,0,0,0-.645-.186,1.33,1.33,0,0,0-.621.162,1.08,1.08,0,0,0-.4.318l-.288.377V159.1h-1.524v-6.136h1.524Z" transform="translate(-146.162 -149.934)"/>
      <path id="路径_4995" data-name="路径 4995" class="cls-3" d="M209.063,152.9v3.546h-1.675V147.3h4.5a8.175,8.175,0,0,1,.939.06,2.826,2.826,0,0,1,1,.323,1.878,1.878,0,0,1,.768.875,3.421,3.421,0,0,1,.314,1.39,3.878,3.878,0,0,1-.169,1.352,2.174,2.174,0,0,1-.675,1.048,2.3,2.3,0,0,1-.9.438,6.014,6.014,0,0,1-1.28.108Zm0-1.594h3a1.208,1.208,0,0,0,.658-.146.923.923,0,0,0,.342-.5,1.994,1.994,0,0,0,.121-.625,1.411,1.411,0,0,0-.173-.667.9.9,0,0,0-.392-.395,1.16,1.16,0,0,0-.438-.109h-3.123Z" transform="translate(-160.168 -147.275)"/>
      <path id="路径_4996" data-name="路径 4996" class="cls-3" d="M224.2,147.25h1.814V156.4H224.2Z" transform="translate(-168.085 -147.25)"/>
    </g>
    <g id="组_779" data-name="组 779" transform="translate(140.182 100.346)">
      <path id="路径_4997" data-name="路径 4997" class="cls-3" d="M228.675,106.172a3.724,3.724,0,0,1-5.089,0,3.232,3.232,0,0,1-1.043-2.422,3.2,3.2,0,0,1,1.053-2.409,3.738,3.738,0,0,1,5.079,0,3.2,3.2,0,0,1,1.052,2.409A3.234,3.234,0,0,1,228.675,106.172Zm-4.733-4.5a2.87,2.87,0,0,0,0,4.176,3.211,3.211,0,0,0,4.39,0,2.862,2.862,0,0,0,0-4.176,3.212,3.212,0,0,0-4.386,0Zm2.118.189a3.171,3.171,0,0,1,1.086.135.924.924,0,0,1,.618.947.8.8,0,0,1-.387.738,1.528,1.528,0,0,1-.567.18.959.959,0,0,1,.675.369,1.009,1.009,0,0,1,.215.584v.275c0,.088,0,.182.009.28a.549.549,0,0,0,.032.2l.023.047h-.655a.277.277,0,0,1-.008-.038c0-.013-.008-.026-.011-.041l-.014-.123v-.3a.9.9,0,0,0-.382-.863,1.83,1.83,0,0,0-.8-.122h-.563v1.485h-.67v-3.751Zm.76.6a2.046,2.046,0,0,0-.869-.138h-.614v1.342h.65a2.123,2.123,0,0,0,.685-.083.571.571,0,0,0,.421-.578A.549.549,0,0,0,226.82,102.462Z" transform="translate(-222.543 -100.346)"/>
    </g>
    <g id="组_780" data-name="组 780" transform="translate(48.169 137.007)">
      <path id="路径_4998" data-name="路径 4998" class="cls-5" d="M49.058,175.847a2.673,2.673,0,0,0-.389-.791,10,10,0,0,0,1.875-2.734c-.546.009-.955.035-1.26.071l.133-.756a10.894,10.894,0,0,0,1.261.07,14.8,14.8,0,0,0,.244-1.951,3.41,3.41,0,0,0,.789.018c.177-.018.215.071.023.22a.338.338,0,0,0-.148.237l-.258,1.476a10.074,10.074,0,0,0,1.19-.07l-.133.756a9.481,9.481,0,0,0-1.164-.062l-.649,3.7c-.08.465-.153,1.081-.2,1.651h-.829c.155-.57.3-1.186.379-1.651l.463-2.646A11.01,11.01,0,0,1,49.058,175.847ZM53.4,174.6c-.092.019-.248.168-.6.695-.357.545-.7,1.09-1.092,1.721a1.452,1.452,0,0,0-.746-.3A7.024,7.024,0,0,0,52.7,174.08a2.476,2.476,0,0,0,.768.326C53.593,174.423,53.588,174.555,53.4,174.6Zm-1.975.344a3.475,3.475,0,0,0-.391-1.231l.663-.316c.147.457.276.827.426,1.222Zm2.724,2c-.077.439-.206.624-1.4.851a1.189,1.189,0,0,0-.291-.851c.7.132.948.06,1.015-.325l.615-3.515c-.748.009-1.339.026-1.8.061l.136-.782c.563.044,1.3.061,2.291.061s1.75-.017,2.285-.061l-.138.782c-.484-.044-1.147-.061-2.043-.061Zm.754-5.914c-.827,0-1.417.019-1.865.061l.14-.8c.448.043,1.017.061,1.843.061s1.417-.018,1.855-.061l-.139.8C56.31,171.049,55.724,171.031,54.9,171.031Zm.992,5.519a7.16,7.16,0,0,0-.878-2.153l.64-.4c.377.7.677,1.3,1.019,2.055Z" transform="translate(-48.669 -169.685)"/>
      <path id="路径_4999" data-name="路径 4999" class="cls-5" d="M66.69,175.473c-.237.405-.5.87-.712,1.309a4.307,4.307,0,0,0-.748-.6,8.228,8.228,0,0,0,.948-1.151A13.718,13.718,0,0,0,67,173.628a1.138,1.138,0,0,0,.516.606A10.256,10.256,0,0,0,66.69,175.473Zm.485-3.12a5.579,5.579,0,0,0-.85-1.363l.764-.5a10.062,10.062,0,0,0,.842,1.31Zm1.273,5.379H67.69a10.677,10.677,0,0,0,.437-1.89l.516-2.944c-.25.318-.524.634-.83.976a1.181,1.181,0,0,0-.43-.554,8.869,8.869,0,0,0,1.52-1.863,10.415,10.415,0,0,0,.809-1.766,2.844,2.844,0,0,0,.807.264c.189.017.2.078-.031.237a4.839,4.839,0,0,0-.757,1.063h1.878c1.4,0,1.814-.016,2.029-.044l-.128.731a16.453,16.453,0,0,0-1.8-.046l-.183,1.046a13.68,13.68,0,0,0,1.563-.044l-.128.731c-.206-.027-.529-.036-1.546-.044l-.176,1c1.02-.009,1.355-.019,1.553-.044l-.127.729c-.206-.026-.512-.033-1.538-.042l-.195,1.115c1.379,0,1.787-.017,2.01-.043l-.128.729c-.232-.026-.6-.044-2.011-.044H68.578Zm.242-1.389h1.564l.195-1.115H68.886ZM69,174.586h1.564l.176-1H69.172Zm.287-1.644h1.564l.183-1.046H69.468Zm2.192-1.881a2.687,2.687,0,0,0-.177-1.055l.8-.228a5.325,5.325,0,0,0,.244,1.072Z" transform="translate(-56.466 -169.654)"/>
      <path id="路径_5000" data-name="路径 5000" class="cls-5" d="M83.1,174.016a1.433,1.433,0,0,0-.466-.605,6.9,6.9,0,0,0,1.56-1.732,8.327,8.327,0,0,0,.982-2.04,3.314,3.314,0,0,0,.814.309c.23.044.274.148.013.282-.087.044-.222.22-.975,1.353l-1.055,6.029h-.827a12.355,12.355,0,0,0,.346-1.415l.578-3.313C83.734,173.3,83.394,173.7,83.1,174.016Zm2.182,1.688a1.349,1.349,0,0,0-.549-.623,7.635,7.635,0,0,0,1.86-.994l.574-3.278a6.507,6.507,0,0,0,.124-1.108,5.008,5.008,0,0,0,.92.106c.168,0,.168.1.019.194a.723.723,0,0,0-.24.377l-.532,3.039a13.183,13.183,0,0,0,2.256-2.452,3.8,3.8,0,0,0,.733.574c.12.07.106.148-.046.165a2.926,2.926,0,0,0-.748.554,23.3,23.3,0,0,1-2.358,2.093l-.336,1.915c-.079.448-.008.5.859.5.949,0,1.136-.062,1.532-1.265a1.168,1.168,0,0,0,.731.588c-.637,1.336-.725,1.379-2.384,1.379-1.581,0-1.669-.148-1.545-.861l.287-1.644C86.082,175.2,85.705,175.441,85.282,175.7Z" transform="translate(-64.66 -169.63)"/>
      <path id="路径_5001" data-name="路径 5001" class="cls-5" d="M98.337,177.944a1.331,1.331,0,0,0-.4-.65c.618-.712.808-1.1,1.216-3.437l.353-2.012c.095-.545.146-.887.161-1.124.355.026.7.034,1.179.034s.819-.008,1.183-.034c-.067.237-.136.579-.231,1.124l-.919,5.246c-.1.563-.18.677-1.319.914a1.216,1.216,0,0,0-.219-.852c.823.106.868.052.912-.2l.311-1.774h-.983A5.208,5.208,0,0,1,98.337,177.944Zm1.331-3.3h.984l.24-1.37h-.984Zm1.566-3.33h-.984L100,172.752h.984Zm.17,6.758a1.221,1.221,0,0,0-.574-.535,4.8,4.8,0,0,0,3.428-3.675h-.483a5.948,5.948,0,0,1-2.246,2.6,1.629,1.629,0,0,0-.462-.431,4.617,4.617,0,0,0,2.047-2.162,1.684,1.684,0,0,0-.935.22,1.577,1.577,0,0,0-.1-.641c.419-.08,1.116-.458,2.944-2.013h-1.3c-.36,0-.749.018-1.143.052l.131-.746c.514.025,1.037.043,1.776.043a14.821,14.821,0,0,0,1.8-.052l-.128.729c-.349.037-.467.106-2.611,1.818h1.572c.263,0,.874-.025,1.355-.069-.35,1.2-.842,2.76-1.165,3.647-.325.914-.57,1.108-1.832,1.231a2.022,2.022,0,0,0-.191-.914c.954.123,1.109.035,1.395-.642a20.09,20.09,0,0,0,.908-2.672h-.7A6.064,6.064,0,0,1,101.406,178.076Z" transform="translate(-71.863 -170.139)"/>
      <path id="路径_5002" data-name="路径 5002" class="cls-5" d="M118.878,172.154h-1.467a13.074,13.074,0,0,1-1.52,2.312,1.044,1.044,0,0,0-.637-.421,7.05,7.05,0,0,0,1.641-2.25,7.666,7.666,0,0,0,.713-1.915,4.6,4.6,0,0,0,.9.2c.137.018.143.079-.017.194a1.79,1.79,0,0,0-.369.553c-.132.256-.251.483-.367.695a13.7,13.7,0,0,0,2.046-.052,10.116,10.116,0,0,1-1.571,3.709,11.068,11.068,0,0,1-2.634,2.154,1.419,1.419,0,0,0-.713-.6,6.762,6.762,0,0,0,2.722-1.845,3.017,3.017,0,0,0-.788-1.17l.594-.483a4.918,4.918,0,0,1,.63,1.011A8.946,8.946,0,0,0,118.878,172.154Zm1.569,3.735a13.544,13.544,0,0,0-.215,1.687h-.9a14.538,14.538,0,0,0,.375-1.687l.873-4.991a7.718,7.718,0,0,0,.138-1.239,4.42,4.42,0,0,0,.871.087c.211,0,.228.062.023.176-.09.061-.141.14-.176.351l-.282,1.608a11.085,11.085,0,0,1,2.108,2.312l-.763.59a9.827,9.827,0,0,0-1.479-2.144Z" transform="translate(-79.841 -169.639)"/>
      <path id="路径_5003" data-name="路径 5003" class="cls-5" d="M140.652,171.875l-.257,1.467h-.7l.148-.844h-5.85l-.157.9h-.7l.266-1.52c.453.026,1.028.044,2.1.051l.126-.72c-.907.008-1.71.035-2.263.078l.123-.693c.554.043,1.33.069,2.236.069a3.883,3.883,0,0,0,.065-.774,6.152,6.152,0,0,0,.808.062c.121,0,.146.061.019.132a.226.226,0,0,0-.14.2l-.066.377h1.617a4.992,4.992,0,0,0,.072-.764,6.073,6.073,0,0,0,.8.052c.123,0,.147.061.021.132a.225.225,0,0,0-.141.2l-.067.377c.931,0,1.753-.026,2.323-.069l-.122.693c-.553-.052-1.364-.078-2.3-.078l-.125.72C139.591,171.91,140.193,171.892,140.652,171.875Zm-6.6,5.273-.112.641h-.782a3.987,3.987,0,0,0,.184-.7l.229-1.308a1.78,1.78,0,0,0,.021-.422c.515.017.954.017,2.825.017s2.355,0,2.831-.017a1.813,1.813,0,0,0-.117.422L138.92,177a3.6,3.6,0,0,0-.061.7h-.817l.1-.553Zm4.18-.546.121-.694h-4.084l-.121.694Zm-1.779-1.785c-1.019,0-1.672.019-2.184.036a7.664,7.664,0,0,0,.2-.9,9,9,0,0,0,.113-.906c.54.026,1.171.036,2.2.036s1.653-.01,2.2-.036c-.059.238-.126.573-.186.906s-.1.659-.128.887C138.149,174.828,137.474,174.818,136.455,174.818Zm1.714-1.2h-2.952l-.119.677h2.952Zm-.372-1.687.125-.72h-1.616l-.126.72Z" transform="translate(-88.433 -169.747)"/>
      <path id="路径_5004" data-name="路径 5004" class="cls-5" d="M151.339,169.9l.734-.283c.151.239.3.493.511.845l-.625.254h1.889a4.819,4.819,0,0,0,.814-1.09,5.306,5.306,0,0,0,.835.247c.069.008.053.149-.071.157-.2.018-.368.089-.867.686.975,0,1.487-.017,2.137-.061l-.119.677c-.853-.054-1.718-.071-3.246-.071-.111.229-.229.449-.334.65,1.354,0,2.1-.017,2.851-.07l-.123.695c-.774-.044-2.066-.08-3.035-.071-.136.229-.271.448-.4.642H154.1c1.186,0,1.665-.026,2.3-.07l-.127.73c-.6-.052-1.112-.071-2.227-.071a2.957,2.957,0,0,0,2.413,1.116,3.514,3.514,0,0,0-.6.871,4.846,4.846,0,0,1-1.682-.932c0,.026-.035.052-.1.106s-.116.166-.18.527l-.279,1.6c-.043.246-.076.527-.1.756H152.7a6,6,0,0,0,.187-.756l.274-1.573a2.747,2.747,0,0,0,.061-.747,6.853,6.853,0,0,0,.9.052,3.69,3.69,0,0,1-.8-1.019h-1.475a8.289,8.289,0,0,1-2.914,2.038,1.153,1.153,0,0,0-.527-.553A6.147,6.147,0,0,0,151.1,173.7c-1.082.008-1.709.034-2.279.071l.128-.73c.615.044,1.3.07,2.657.07.149-.2.283-.413.42-.642-.986.009-1.613.035-2.244.071l.123-.695c.658.043,1.315.062,2.4.07a4.27,4.27,0,0,0,.274-.65c-1.362,0-2.191.025-3.009.071l.119-.677c.6.043,1.237.061,2.108.061A2.391,2.391,0,0,0,151.339,169.9Zm.407,4.745c.151-.008.15.043.048.132-.186.158-.22.2-.365.782a3.211,3.211,0,0,1-2.069,2.18,1.884,1.884,0,0,0-.6-.5c1.717-.731,1.919-.985,2.185-2.655A5.432,5.432,0,0,0,151.747,174.649Z" transform="translate(-95.628 -169.622)"/>
      <path id="路径_5005" data-name="路径 5005" class="cls-5" d="M165.676,172.74a.975.975,0,0,0-.383-.528,7.4,7.4,0,0,0,1.977-2.355,3.476,3.476,0,0,0,.533.263c.149.052.156.115-.01.2a2.539,2.539,0,0,0-.462.492,12.463,12.463,0,0,0,1.91-.069l-1.053,1.4c.413-.009.8-.027,1.133-.052a3.484,3.484,0,0,0-.149.552l-.712,4.069c-.107.606-.184.7-1.1.9a1.26,1.26,0,0,0-.165-.773c.5.069.646-.026.682-.237l.206-1.178h-.728c-.157.9-.231,1.521-.246,1.758h-.641a17.9,17.9,0,0,0,.36-1.758h-.695a7.442,7.442,0,0,1-1.12,2.337,1.054,1.054,0,0,0-.494-.44,5.165,5.165,0,0,0,1.2-2.751l.4-2.293C165.962,172.459,165.812,172.608,165.676,172.74Zm.559-.589h1.309l.577-.835h-1.168C166.761,171.553,166.5,171.861,166.235,172.151Zm.159,1.9-.15.861h.676l.15-.861Zm.762-.483.159-.914h-.676l-.159.914Zm.442.483-.151.861h.728l.151-.861Zm.814-.483.158-.914h-.728l-.16.914Zm2.532-.318a5.5,5.5,0,0,0,.746.052c.1,0,.106.044.016.115a.507.507,0,0,0-.142.254l-.107.615a11.456,11.456,0,0,0,1.24-.062l-.106.607a11.436,11.436,0,0,0-1.219-.06l-.173.984c.51-.009,1.076-.027,1.38-.061l-.114.658c-.3-.025-.852-.052-1.361-.062a14.127,14.127,0,0,0-.2,1.512h-.756c.138-.493.231-.976.325-1.512-.642.01-1.3.026-1.67.062l.115-.658c.37.044,1.016.061,1.649.061l.173-.984h-.974a5.117,5.117,0,0,1-.44.693.815.815,0,0,0-.507-.264,4.676,4.676,0,0,0,.958-1.7,2.522,2.522,0,0,0,.537.194c.12.018.121.062-.013.175a2.8,2.8,0,0,0-.3.422h.827A8,8,0,0,0,170.945,173.249Zm-1.275.052a1.072,1.072,0,0,0-.5-.475,2.386,2.386,0,0,0,1.544-1.792,9.009,9.009,0,0,0-1.083.062l.115-.661a11.591,11.591,0,0,0,1.659.062,13.315,13.315,0,0,0,1.794-.062c-.131.4-.237.749-.492,1.654-.195.712-.382.826-1.528.9a1.13,1.13,0,0,0-.152-.739c.84.177,1,.01,1.1-.342l.225-.878h-1.054A3.478,3.478,0,0,1,169.67,173.3Z" transform="translate(-103.214 -169.733)"/>
      <path id="路径_5006" data-name="路径 5006" class="cls-5" d="M181.944,176.971a4,4,0,0,0-.7-.684,15.776,15.776,0,0,0,2.013-2.822c.211.3.3.388.548.474C182.921,175.3,182.157,176.505,181.944,176.971Zm1.48-4.244a5.564,5.564,0,0,0-.965-1.714l.676-.449c.286.413.851,1.3,1.081,1.7Zm-.277,5.1a1.3,1.3,0,0,0-.527-.65,4.54,4.54,0,0,0,3.153-2.811,12.731,12.731,0,0,0-1.752.077l.122-.7a14.548,14.548,0,0,0,1.788.079c.115-.51.245-1.248.36-2.014-.607.009-1.2.037-1.514.071l.129-.737c.284.034.869.052,1.483.062.071-.51.133-1.011.17-1.424a6.26,6.26,0,0,0,.95.033c.142-.007.164.062.016.159s-.274.413-.437,1.239a19.094,19.094,0,0,0,2.052-.079,10.361,10.361,0,0,0-.309,1.265l-.273,1.414a6.825,6.825,0,0,0,.846-.069l-.123.7a21.313,21.313,0,0,0-2.6-.077,2.744,2.744,0,0,0,2.466,2.477,2.089,2.089,0,0,0-.7.985,3.34,3.34,0,0,1-2.091-3.313C185.836,176.066,185.057,176.848,183.147,177.824Zm3.407-4.007h1.3l.432-2.014h-1.31C186.831,172.586,186.7,173.245,186.554,173.817Z" transform="translate(-111.088 -169.694)"/>
      <path id="路径_5007" data-name="路径 5007" class="cls-5" d="M204.385,173.158a8.309,8.309,0,0,0,.9-.044l-.843,3.207c-.243.94-.447,1.151-1.954,1.38a1.629,1.629,0,0,0-.385-1.063c.987.238,1.408.035,1.559-.466l.681-2.328h-2.417a6.518,6.518,0,0,1-2.848,3.822,1.086,1.086,0,0,0-.743-.615,5.261,5.261,0,0,0,2.848-3.226,17.7,17.7,0,0,0,.434-1.783c-1.126.009-1.848.025-2.593.061l.138-.792c.9.044,2.123.062,3.757.062,1.651,0,2.91-.018,3.787-.062l-.138.792c-.852-.044-2.483-.061-4.134-.061-.1.4-.2.746-.31,1.116Zm-1.751-1.889a4.567,4.567,0,0,0-.274-1.2l1-.3a4.3,4.3,0,0,0,.253,1.159Z" transform="translate(-119.134 -169.694)"/>
      <path id="路径_5008" data-name="路径 5008" class="cls-5" d="M222.232,175.077l-.117.668c-.669-.046-1.508-.07-2.649-.08a4,4,0,0,0,2.817,1.125,2.731,2.731,0,0,0-.463.791,3.928,3.928,0,0,1-2.9-1.924h-.114l-.183,1.045c-.071.414-.119.783-.141,1.1H217.7a7.948,7.948,0,0,0,.263-1.1l.183-1.045h-.061a7.32,7.32,0,0,1-3.392,2.064,1.012,1.012,0,0,0-.39-.632,7.8,7.8,0,0,0,3.167-1.433c-1.17.008-2.123.034-2.784.088l.117-.668c.772.061,1.944.089,3.42.089a3.516,3.516,0,0,0,.041-.641,4.413,4.413,0,0,0,.811.033c.179-.017.192.009.025.158a.463.463,0,0,0-.176.309l-.024.141C220.4,175.156,221.424,175.129,222.232,175.077Zm-6.715-2.433.11-.633c.7.052,1.34.078,2.165.078a5.73,5.73,0,0,0,.636-.827c.213.089.469.177.594.22.224.08.205.132-.006.237a3.669,3.669,0,0,0-.468.37h2.142c.765,0,1.393-.026,1.913-.078l-.113.641c-.387-.044-.918-.07-1.532-.079a2.938,2.938,0,0,1-.953.932c.777.175,1.533.369,2.126.544a3.092,3.092,0,0,0-.529.615,20.931,20.931,0,0,0-2.174-.773,11.462,11.462,0,0,1-3.771.861,2.184,2.184,0,0,0-.313-.668,12.655,12.655,0,0,0,3.294-.4c-.616-.14-1.3-.272-2.117-.4a10.063,10.063,0,0,0,.8-.7C216.7,172.581,216.155,172.6,215.517,172.643Zm3.468-2.708.808-.1a5.645,5.645,0,0,0,.011.791c1.651,0,2.3-.025,3.055-.087l-.187,1.072h-.809l.083-.475h-5.323l-.1.572h-.773l.2-1.168c.727.061,1.381.087,3.033.087A4.818,4.818,0,0,0,218.985,169.935Zm-.963,2.636c-.136.133-.276.273-.414.422.493.087,1.1.211,1.7.351a3.575,3.575,0,0,0,.926-.774Z" transform="translate(-126.648 -169.724)"/>
    </g>
  </g>
</svg>
