<svg xmlns="http://www.w3.org/2000/svg" width="36.488" height="36.385" viewBox="0 0 36.488 36.385">
  <path id="联合_30" data-name="联合 30" d="M-3274.161,2066.386c-1.649-.017-3.3-.02-4.946-.02h-2.519c-1.683,0-3.363,0-5.047-.022a7.839,7.839,0,0,1-2.72-.574,3.564,3.564,0,0,1-2.31-3.526l.006-6.26c0-3.465,0-6.933.031-10.4a3.366,3.366,0,0,1,1.128-2.292c2-1.83,4.18-4.116,5.093-7.2a15.453,15.453,0,0,0,.452-2.807,3.306,3.306,0,0,1,3.222-3.289,3.91,3.91,0,0,1,2.016.6,6.1,6.1,0,0,1,2.714,3.851,17.427,17.427,0,0,1-.057,7.973c-.066.357-.14.712-.219,1.078h6.849a4.1,4.1,0,0,1,3.288,1.188,3.678,3.678,0,0,1,.548,3.2c-.824,4.243-1.833,8.521-2.8,12.512a21.642,21.642,0,0,1-1.281,3.509l-.206.478a3.255,3.255,0,0,1-3.191,2Zm-22.185-.009c-.349-.012-.7-.019-1.048-.02l-1.238.009-.481,0a2.545,2.545,0,0,1-2.847-2.691q-.394-6.191-.77-12.381c-.092-1.5-.168-3-.245-4.5l-.015-.313a2.863,2.863,0,0,1,.614-2.233,2.917,2.917,0,0,1,2.224-.742l1.7,0,1.695,0c2.1.007,3.081.978,3.088,3.056.006,2.04,0,4.081,0,6.122l0,4.815c0,2.057-.009,4.117.017,6.176a2.761,2.761,0,0,1-.686,2.016,2.484,2.484,0,0,1-1.859.693Zm.147-1.422v-.239h-.009Z" transform="translate(3303 -2030)" fill="#0077c2"/>
</svg>
