<svg xmlns="http://www.w3.org/2000/svg" width="24" height="22" viewBox="0 0 24 22">
  <defs>
    <style>
      .cls-1 {
        fill: #2f92ee;
      }

      .cls-2 {
        fill: #63f7de;
      }
    </style>
  </defs>
  <g id="组_784" data-name="组 784" transform="translate(-0.036 0.367)">
    <path id="路径_5014" data-name="路径 5014" class="cls-1" d="M67.068,483.015h-22l-1-1v-10l1-1h7l1,1v3h6v-3l2-1h6l1,1v10Zm-21-2h20v-8h-4v3l-1,1h-9l-1-1v-3h-5Z" transform="translate(-44.032 -461.382)"/>
    <path id="路径_5015" data-name="路径 5015" class="cls-1" d="M67.065,110.961l-4-10h-3v-2h3l1,1,5,10Zm-20,0-2-1,5-10,1-1h4v2h-3Z" transform="translate(-45.029 -99.328)"/>
    <path id="路径_5016" data-name="路径 5016" class="cls-2" d="M379.221,109.935h3v1h-3Zm-1,2h5v2h-5Zm-1,3h7v2h-7Z" transform="translate(-368.185 -109.302)"/>
  </g>
</svg>
