<?xml version="1.0" standalone="no"?><!DOCTYPE svg PUBLIC "-//W3C//DTD SVG 1.1//EN" "http://www.w3.org/Graphics/SVG/1.1/DTD/svg11.dtd"><svg t="1587622919520" class="icon" viewBox="0 0 1024 1024" version="1.1" xmlns="http://www.w3.org/2000/svg" p-id="2103" xmlns:xlink="http://www.w3.org/1999/xlink" width="32" height="32"><defs><style type="text/css"></style></defs><path d="M1013.418486 118.730945a137.918658 137.918658 0 0 1 9.578976 49.847877c0 9.299977-1.766996 18.785953-5.300986 28.17893-3.719991 9.299977-9.299977 18.413954-17.111958 27.062933-8.555979 8.648979-16.18196 16.27496-23.063943 22.784943a815.142978 815.142978 0 0 0-17.669956 17.297957c-5.579986 5.858985-10.973973 10.787973-15.99596 15.158963L743.998155 76.50905l30.503924-28.736928c11.717971-11.159972 21.389947-19.99495 29.387927-26.504935A92.999769 92.999769 0 0 1 866.385851 0.06324c10.229975 0.371999 20.27395 2.045995 29.945926 4.835988 9.578976 2.975993 17.855956 6.137985 25.109937 9.764976 14.972963 7.99798 31.619922 21.761946 49.754877 41.663896 17.948955 19.901951 32.17792 40.640899 42.221895 62.309846zM104.531741 705.001491a7439.051548 7439.051548 0 0 1 95.138764-96.254761L622.633456 186.062778 836.997924 401.450244 590.548535 647.713633l-91.697772 92.81377c-30.503924 29.759926-58.031856 57.101858-82.490796 81.839797-24.551939 24.830938-44.732889 45.290888-60.821849 61.379848a514.288724 514.288724 0 0 1-54.962864 49.289878 143.033645 143.033645 0 0 1-30.968923 18.227954 506.476744 506.476744 0 0 1-46.964883 19.529952c-20.645949 7.532981-42.314895 14.972963-64.820839 22.319945-22.598944 7.253982-43.988891 13.577966-64.169841 18.878953a508.243739 508.243739 0 0 1-45.290888 10.322974c-20.645949 2.324994-34.409915-0.743998-41.198898-9.206977-6.881983-8.369979-8.741978-22.412944-5.765985-42.314895 1.580996-10.787973 5.114987-26.225935 10.880973-46.499885l18.320954-62.960844c6.509984-21.761946 12.740968-41.849896 18.971953-60.07785 6.137985-18.320955 10.973973-30.968923 14.879963-37.850907 4.649988-10.694973 9.764976-20.459949 15.437962-29.201927 5.765986-8.741978 13.949965-18.506954 24.644939-29.201928z" p-id="2104"></path></svg>