<?xml version="1.0" standalone="no"?><!DOCTYPE svg PUBLIC "-//W3C//DTD SVG 1.1//EN" "http://www.w3.org/Graphics/SVG/1.1/DTD/svg11.dtd"><svg t="1587623790585" class="icon" viewBox="0 0 1024 1024" version="1.1" xmlns="http://www.w3.org/2000/svg" p-id="3452" xmlns:xlink="http://www.w3.org/1999/xlink" width="32" height="32"><defs><style type="text/css"></style></defs><path d="M828.773 64.508H182.555c-83.443 0-151.066 73.984-151.066 158.277v418.569c0 84.293 66.044 140.7 149.49 140.7h59.795v179.389l209.284-179.389h388.673c83.414 0 149.487-56.407 149.487-140.7V222.785c-0.001-84.293-76.03-158.277-159.445-158.277z m99.65 576.846c0 55.884-45.051 80.904-89.692 80.904H427.926l-16.79 14.396-110.569 94.774v-109.17H180.976c-44.644 0-89.695-25.021-89.695-80.904V222.785c0-52.467 42.657-98.481 91.272-98.481h646.218c51.211 0 99.65 47.854 99.65 98.481l0.002 418.569z" p-id="3453"></path><path d="M270.669 423.281z m-59.794 0a59.793 59.793 0 0 0 89.693 51.785 59.797 59.797 0 0 0 0-103.569 59.792 59.792 0 0 0-59.795 0 59.792 59.792 0 0 0-29.898 51.784M509.853 423.281z m-59.796 0c0 33.024 26.771 59.795 59.795 59.795 33.023 0 59.794-26.771 59.794-59.795a59.794 59.794 0 1 0-119.589 0M749.034 423.281z m-59.795 0a59.798 59.798 0 0 0 29.896 51.785 59.802 59.802 0 0 0 59.798 0c18.502-10.681 29.896-30.422 29.896-51.785s-11.395-41.103-29.896-51.784a59.797 59.797 0 0 0-89.694 51.784" p-id="3454"></path></svg>