<?xml version="1.0" standalone="no"?><!DOCTYPE svg PUBLIC "-//W3C//DTD SVG 1.1//EN" "http://www.w3.org/Graphics/SVG/1.1/DTD/svg11.dtd"><svg t="1588045354392" class="icon" viewBox="0 0 1024 1024" version="1.1" xmlns="http://www.w3.org/2000/svg" p-id="1932" xmlns:xlink="http://www.w3.org/1999/xlink" width="32" height="32"><defs><style type="text/css"></style></defs><path d="M512 0a512 512 0 1 0 512 512 512 512 0 0 0-512-512z m216.746667 523.946667l-292.977778 195.128889a22.755556 22.755556 0 0 1-13.653333 3.982222 23.893333 23.893333 0 0 1-23.893334-24.462222V308.906667a22.755556 22.755556 0 0 1 3.982222-13.653334 23.893333 23.893333 0 0 1 33.564445-6.826666l292.977778 195.128889a18.204444 18.204444 0 0 1 6.257777 6.826666 23.893333 23.893333 0 0 1-6.257777 33.564445z" fill="#B8BBCC" p-id="1933"></path><path d="M728.746667 483.555556L435.768889 288.426667a23.893333 23.893333 0 0 0-33.564445 6.826666 22.755556 22.755556 0 0 0-3.982222 13.653334v389.688889a23.893333 23.893333 0 0 0 23.893334 24.462222 22.755556 22.755556 0 0 0 13.653333-3.982222l292.977778-195.128889a23.893333 23.893333 0 0 0 6.257777-33.564445 18.204444 18.204444 0 0 0-6.257777-6.826666z" fill="#FFFFFF" p-id="1934"></path></svg>