<?xml version="1.0" standalone="no"?><!DOCTYPE svg PUBLIC "-//W3C//DTD SVG 1.1//EN" "http://www.w3.org/Graphics/SVG/1.1/DTD/svg11.dtd"><svg t="1589248778772" class="icon" viewBox="0 0 1024 1024" version="1.1" xmlns="http://www.w3.org/2000/svg" p-id="3698" xmlns:xlink="http://www.w3.org/1999/xlink" width="32" height="32"><defs><style type="text/css"></style></defs><path d="M152.104 424.669c-49.50700001 0-89.636 40.129-89.637 89.637s40.129 89.636 89.637 89.637 89.636-40.129 89.637-89.637-40.129-89.636-89.637-89.637v0zM510.649 424.67c-49.50700001 0-89.635 40.129-89.635 89.636s40.128 89.637 89.63499999 89.636 89.636-40.129 89.637-89.637-40.129-89.636-89.637-89.637v0zM869.196 424.67c-49.50700001 0-89.636 40.129-89.637 89.637s40.129 89.636 89.637 89.637c49.50700001 0 89.636-40.129 89.637-89.637s-40.129-89.636-89.637-89.637v0zM869.196 424.67z" p-id="3699" fill="#576B95"></path></svg>