<?xml version="1.0" encoding="UTF-8"?>
<svg width="54px" height="54px" viewBox="0 0 54 54" version="1.1" xmlns="http://www.w3.org/2000/svg" xmlns:xlink="http://www.w3.org/1999/xlink">
    <!-- Generator: Sketch 51.3 (57544) - http://www.bohemiancoding.com/sketch -->
    <title>我的@2x</title>
    <desc>Created with Sketch.</desc>
    <defs></defs>
    <g id="汇·直播" stroke="none" stroke-width="1" fill="none" fill-rule="evenodd">
        <g id="标签icon" transform="translate(-648.000000, -79.000000)">
            <g id="底部标签/4选项-copy" transform="translate(0.000000, 73.000000)">
                <g id="我的" transform="translate(648.000000, 6.000000)">
                    <g id="我的-">
                        <g id="我的">
                            <path d="M6,24.1714221 L6,24.1714238 C6.00000094,30.3412285 11.0572567,35.3428477 17.2956936,35.3428477 C23.5341306,35.3428467 28.5913873,30.3412285 28.5913873,24.1714238 C28.5913873,18.0016191 23.5341306,13 17.2956936,13 C11.0572567,13 6,18.0016191 6,24.1714238 L6,24.1714221 Z" id="Shape" fill="#60B2F6" fill-rule="nonzero"></path>
                            <g transform="translate(12.000000, 14.000000)" fill="#576B95" fill-rule="nonzero" id="Group">
                                <g transform="translate(0.028646, 0.638021)">
                                    <path d="M27.6745999,7.95896759 C27.4945375,7.60273052 27.1299045,7.37756828 26.7307473,7.37613885 C26.1508347,7.37346715 25.678556,7.84141361 25.6758862,8.42132626 C25.6749973,8.61426534 25.7272852,8.80371994 25.8270098,8.96888914 L25.8270105,8.96889056 C28.9913761,15.1404993 26.553527,22.7088232 20.3819182,25.8731889 C14.2103095,29.0375545 6.64198556,26.5997053 3.4776199,20.4280966 C0.313254234,14.2564879 2.75110342,6.68816395 8.92271217,3.52379828 C12.5037033,1.68772427 16.747703,1.67904457 20.3361421,3.50045528 L20.343221,3.48747733 C20.8470417,3.7772761 21.4903992,3.6037741 21.7801951,3.09995317 C22.0699939,2.59613254 21.8964919,1.95277502 21.3926709,1.66297911 C21.3562658,1.64203889 21.3186397,1.62329656 21.2799947,1.60685297 L21.2799949,1.60685308 C14.0585725,-2.04901836 5.24077314,0.841429797 1.58487305,8.06285799 C-2.07099839,15.2842805 0.819449762,24.1020798 8.04087796,27.7579799 C15.2623004,31.4138513 24.0800997,28.5234032 27.7359998,21.301975 C29.8618125,17.1028633 29.8416028,12.1383054 27.6816704,7.95663912 L27.6745999,7.95896759 Z" id="Shape"></path>
                                    <path d="M23.1500139,5.14393828 L23.1500139,5.14394687 C23.1480639,5.72646916 23.618709,6.20027752 24.2012313,6.20222831 C24.7837536,6.20417833 25.2575619,5.73353323 25.2595127,5.15101094 C25.2614627,4.56848864 24.7908176,4.09468028 24.2082953,4.0927295 C24.2071175,4.09272555 24.2059397,4.09272358 24.2047618,4.09272359 C23.6233481,4.09207106 23.1513072,4.56252726 23.1500067,5.14393809 L23.1500139,5.14393828 Z" id="Shape" opacity="0.4"></path>
                                    <path d="M8.44949942,10.5203664 L8.44949942,10.5203666 C8.44949954,11.3361637 9.11083222,11.9974965 9.92662926,11.9974965 C10.7424263,11.9974964 11.4037591,11.3361637 11.4037591,10.5203666 C11.403759,9.70456959 10.7424263,9.04323679 9.92662926,9.04323679 C9.11083215,9.04323682 8.44949935,9.70456959 8.44949935,10.5203666 C8.44949935,10.5203666 8.44949935,10.5203666 8.44949935,10.5203666 L8.44949942,10.5203664 Z" id="Shape" opacity="0.6"></path>
                                    <path d="M17.8231431,10.5203664 L17.8231431,10.5203666 C17.8231433,11.3361637 18.4844759,11.9974965 19.300273,11.9974965 C20.11607,11.9974964 20.7774028,11.3361637 20.7774028,10.5203666 C20.7774027,9.70456959 20.11607,9.04323679 19.300273,9.04323679 C18.4844759,9.04323682 17.8231431,9.70456959 17.8231431,10.5203666 L17.8231431,10.5203664 Z" id="Shape" opacity="0.6"></path>
                                    <path d="M14.6576889,22.1651404 C17.0596592,22.1641226 19.2518271,20.7966557 20.3090028,18.6398654 C20.389103,18.4813444 20.4318807,18.3066023 20.4340632,18.1290065 L20.4340633,18.1290089 C20.4254208,17.5426366 19.9430674,17.0742967 19.3566951,17.0829392 C18.9600701,17.088785 18.5997739,17.3152162 18.4224789,17.6700562 L18.4224788,17.6700564 C17.4581931,19.7525507 14.9882978,20.6590521 12.9058005,19.694752 C12.0123417,19.2810426 11.2948143,18.5635152 10.881105,17.6700564 L10.881105,17.6606179 C10.6413794,17.1297068 10.0166557,16.8936534 9.48574185,17.1333792 C8.95483081,17.3731047 8.71877741,17.9978284 8.95850321,18.5287423 C8.96754969,18.5487772 8.97722031,18.5685245 8.98750085,18.587955 L8.98750094,18.5879552 C10.0313449,20.7724718 12.2366011,22.1637041 14.6576924,22.1651651 L14.6576889,22.1651404 Z" id="Shape"></path>
                                </g>
                            </g>
                        </g>
                    </g>
                </g>
            </g>
        </g>
    </g>
</svg>