<?xml version="1.0" encoding="UTF-8"?>
<svg width="54px" height="54px" viewBox="0 0 54 54" version="1.1" xmlns="http://www.w3.org/2000/svg" xmlns:xlink="http://www.w3.org/1999/xlink">
    <!-- Generator: Sketch 51.3 (57544) - http://www.bohemiancoding.com/sketch -->
    <title>直播回放@2x</title>
    <desc>Created with Sketch.</desc>
    <defs></defs>
    <g id="汇·直播" stroke="none" stroke-width="1" fill="none" fill-rule="evenodd">
        <g id="标签icon" transform="translate(-498.000000, -79.000000)">
            <g id="底部标签/4选项-copy" transform="translate(0.000000, 73.000000)">
                <g id="直播回放" transform="translate(498.000000, 6.000000)">
                    <g>
                        <g>
                            <g id="回放缓存" transform="translate(6.000000, 13.000000)" fill="#60B2F6" fill-rule="nonzero">
                                <path d="M0,11.1714221 L1.2976936e-13,11.1714238 C9.41979942e-07,17.3412285 5.05725665,22.3428477 11.2956936,22.3428477 C17.5341306,22.3428467 22.5913873,17.3412285 22.5913873,11.1714238 C22.5913873,5.00161914 17.5341306,0 11.2956936,0 C5.05725665,1.88737847e-15 1.29769443e-13,5.00161914 1.29769443e-13,11.1714238 L0,11.1714221 Z" id="Shape"></path>
                            </g>
                            <g id="Group" transform="translate(22.000000, 23.000000)" fill="#576B95" fill-rule="nonzero" opacity="0.6">
                                <path d="M2.65610065,11.9677192 C2.39049059,11.9677192 2.12488052,11.8824559 1.94780714,11.7971927 C0.0885366884,10.9445601 0,7.02245027 0,5.82876467 C0,4.3792893 0.177073377,0.968759012 1.94780714,0.201389698 C2.39049059,-0.0544000735 3.18732078,-0.224926588 5.04659124,0.712969241 C7.17147176,1.73612833 10.6244026,4.20876278 10.6244026,6.34034421 C10.6244026,8.38666238 5.66634806,10.8592968 5.40073799,11.0298234 C4.07268767,11.7119294 3.18732078,11.9677192 2.65610065,11.9677192 Z M2.74463734,10.262454 L2.85574845,10.3715449 C2.85574845,10.3715449 2.85574845,10.262454 2.74463734,10.262454 Z M2.74463734,1.73612833 C2.47902727,1.82139158 1.85927046,2.75928741 1.77073377,5.06139535 C1.59366039,8.04560935 2.3019539,10.0066643 2.74463734,10.262454 C4.16122435,10.262454 8.67659546,7.19297678 8.85366884,6.34034421 C8.85366884,5.99929118 8.4109854,5.31718512 7.34854514,4.29402604 C5.57781137,2.75928741 3.36439416,1.73612833 2.74463734,1.73612833 Z" id="Shape"></path>
                            </g>
                            <g id="课程回放" transform="translate(12.000000, 14.000000)" fill="#576B95" fill-rule="nonzero">
                                <path d="M1.92725867,17.1534771 C2.4933395,16.9401691 2.91802087,17.1178797 3.20130277,17.6866088 C4.58145624,22.7674646 9.11522013,26.3473089 14.3373037,26.3473089 C20.7196261,26.3473089 25.8934208,21.044912 25.8934208,14.5018482 C25.8934208,7.9587844 20.7196261,2.65454852 14.3373037,2.65454852 C9.38414821,2.64355511 4.97519933,5.89411206 3.37650237,10.7355269 L1.38135587,10.0505732 C3.23348184,4.39002636 8.4215881,0.5 14.3372862,0.5 C21.879877,0.5 27.9958241,6.76797646 27.9958241,14.5 C27.9958241,22.2320235 21.879877,28.5 14.3372862,28.5 C8.16592718,28.5 2.8097804,24.2684362 1.17932616,18.2626126 C1.111867,17.7364969 1.36117783,17.366785 1.92725867,17.1534771 Z M1.97822569,7.86433078 L4.57269319,9.38858157 C5.04887916,9.66834104 5.20811431,10.2811559 4.92835484,10.7573419 C4.83179864,10.9216927 4.69028089,11.0550234 4.52047418,11.1416258 L2.49542499,12.1744131 C2.00343135,12.4253328 1.40118109,12.2299038 1.15026138,11.7379101 C1.11196969,11.6628293 1.08332336,11.5832087 1.06500371,11.5009422 L0.495585401,8.94390421 C0.375539432,8.40482406 0.715233754,7.87049677 1.25431391,7.7504508 C1.50133465,7.69544257 1.76002472,7.73613761 1.97822569,7.86433078 Z" id="Shape"></path>
                            </g>
                        </g>
                    </g>
                </g>
            </g>
        </g>
    </g>
</svg>