<?xml version="1.0" encoding="UTF-8"?>
<svg width="54px" height="54px" viewBox="0 0 54 54" version="1.1" xmlns="http://www.w3.org/2000/svg" xmlns:xlink="http://www.w3.org/1999/xlink">
    <!-- Generator: Sketch 51.3 (57544) - http://www.bohemiancoding.com/sketch -->
    <title>Icon Shape @2x</title>
    <desc>Created with Sketch.</desc>
    <defs></defs>
    <g id="汇·直播" stroke="none" stroke-width="1" fill="none" fill-rule="evenodd">
        <g id="标签icon" transform="translate(-198.000000, -79.000000)" fill-rule="nonzero">
            <g id="底部标签/4选项-copy" transform="translate(0.000000, 73.000000)">
                <g id="直播中" transform="translate(198.000000, 6.000000)">
                    <g id="直播">
                        <g>
                            <g transform="translate(2.000000, 13.000000)">
                                <g id="Group" transform="translate(0.492190, 0.000000)">
                                    <path d="M0,12.1714221 L1.2976936e-13,12.1714238 C9.41979942e-07,18.3412285 5.05725665,23.3428477 11.2956936,23.3428477 C17.5341306,23.3428467 22.5913873,18.3412285 22.5913873,12.1714238 C22.5913873,6.00161914 17.5341306,1 11.2956936,1 C5.05725665,1 1.29769443e-13,6.00161914 1.29769443e-13,12.1714238 L0,12.1714221 Z" id="Shape" fill="#60B2F6"></path>
                                    <path d="M24.6399988,6.63999882 C24.1599972,7.12000039 23.4399982,7.12000039 22.9599966,6.63999882 L19.3600012,3.04000341 C18.8799996,2.56000184 18.8799996,1.84000276 19.3600012,1.36000118 C19.8400028,0.879999606 20.5600018,0.879999606 21.0400034,1.36000118 L24.6399988,4.95999659 C25.1200004,5.43999816 25.1200004,6.15999724 24.6399988,6.63999882 Z" id="Shape" fill="#576B95" opacity="0.85"></path>
                                    <path d="M24.3692321,7.63076791 C23.8769226,7.13845846 23.8769226,6.39999764 24.3692321,5.90768819 L29.9076882,0.369232089 C30.3999976,-0.123077363 31.1384585,-0.123077363 31.6307679,0.369232089 C32.1230774,0.861541542 32.1230774,1.60000236 31.6307679,2.09231181 L26.0923118,7.63076791 C25.6000024,8.12307736 24.8615415,8.12307736 24.3692321,7.63076791 Z" id="Shape" fill="#576B95" opacity="0.6"></path>
                                    <path d="M39.2139923,29 L11.7860077,29 C10.7654333,29 10,28.2369931 10,27.219654 L10,8.78034602 C10,7.76300693 10.7654333,7 11.7860077,7 L39.2139923,7 C40.2345667,7 41,7.76300693 41,8.78034602 L41,27.219654 C41,28.109827 40.1069962,29 39.2139923,29 Z M37.4279812,26.8381662 C38.1934111,26.8381662 38.7037,26.2023288 38.7037,25.6936575 L38.7037,10.4335538 C38.7037,9.7977164 38.1934111,9.28904512 37.5555517,9.28904512 L13.4444483,9.28904512 C12.8065889,9.28904512 12.2963,9.7977164 12.2963,10.4335538 L12.2963,25.6936575 C12.2963,26.3294949 12.8065889,26.8381662 13.4444483,26.8381662 L37.4279847,26.8381662 Z" id="Combined-Shape" fill="#576B95"></path>
                                    <path d="M19,18.002049 C19,14.6281995 21.6250013,11.879141 25,12.0040981 C28.2500037,12.0040981 31,14.7531621 31,18.002049 C31,21.2509428 28.3749987,24 25,24 C21.7499963,24 19,21.3758952 19,18.002049 Z M27.6022616,18.509174 L27.6022616,18.5091603 C28.1022622,18.2592454 28.1022622,17.5095037 27.6022616,17.2595892 L24.1022644,15.2602733 C23.6022639,15.0103584 22.9772649,15.3852291 22.9772649,15.8850589 L22.9772649,19.8837043 C22.9772649,20.3835327 23.6022639,20.7584044 24.1022644,20.5084898 L27.6022616,18.509174 Z" id="Combined-Shape" fill="#576B95" opacity="0.4"></path>
                                </g>
                            </g>
                        </g>
                    </g>
                </g>
            </g>
        </g>
    </g>
</svg>