<?xml version="1.0" encoding="UTF-8"?>
<svg width="54px" height="54px" viewBox="0 0 54 54" version="1.1" xmlns="http://www.w3.org/2000/svg" xmlns:xlink="http://www.w3.org/1999/xlink">
    <!-- Generator: Sketch 51.3 (57544) - http://www.bohemiancoding.com/sketch -->
    <title>直播中@2x</title>
    <desc>Created with Sketch.</desc>
    <defs></defs>
    <g id="汇·直播" stroke="none" stroke-width="1" fill="none" fill-rule="evenodd">
        <g id="标签icon" transform="translate(-198.000000, -248.000000)" fill="#777777">
            <g id="底部标签/4选项" transform="translate(0.000000, 242.000000)">
                <g id="直播中" transform="translate(198.000000, 6.000000)">
                    <g id="直播中-未选中">
                        <g id="直播中">
                            <g id="直播" transform="translate(12.000000, 13.000000)" fill-rule="nonzero">
                                <g id="Group" transform="translate(0.492190, 0.000000)">
                                    <path d="M14.6399988,6.63999882 C14.1599972,7.12000039 13.4399982,7.12000039 12.9599966,6.63999882 L9.36000118,3.04000341 C8.87999961,2.56000184 8.87999961,1.84000276 9.36000118,1.36000118 C9.84000276,0.879999606 10.5600018,0.879999606 11.0400034,1.36000118 L14.6399988,4.95999659 C15.1200004,5.43999816 15.1200004,6.15999724 14.6399988,6.63999882 Z" id="Shape" opacity="0.85"></path>
                                    <path d="M14.3692321,7.63076791 C13.8769226,7.13845846 13.8769226,6.39999764 14.3692321,5.90768819 L19.9076882,0.369232089 C20.3999976,-0.123077363 21.1384585,-0.123077363 21.6307679,0.369232089 C22.1230774,0.861541542 22.1230774,1.60000236 21.6307679,2.09231181 L16.0923118,7.63076791 C15.6000024,8.12307736 14.8615415,8.12307736 14.3692321,7.63076791 Z" id="Shape" opacity="0.6"></path>
                                    <path d="M29.2139923,29 L1.78600766,29 C0.765433348,29 0,28.2369931 0,27.219654 L0,8.78034602 C0,7.76300693 0.765433348,7 1.78600766,7 L29.2139923,7 C30.2345667,7 31,7.76300693 31,8.78034602 L31,27.219654 C31,28.109827 30.1069962,29 29.2139923,29 Z M27.4279812,26.8381662 C28.1934111,26.8381662 28.7037,26.2023288 28.7037,25.6936575 L28.7037,10.4335538 C28.7037,9.7977164 28.1934111,9.28904512 27.5555517,9.28904512 L3.44444832,9.28904512 C2.80658894,9.28904512 2.29630004,9.7977164 2.29630004,10.4335538 L2.29630004,25.6936575 C2.29630004,26.3294949 2.80658894,26.8381662 3.44444832,26.8381662 L27.4279847,26.8381662 Z" id="Combined-Shape"></path>
                                    <path d="M9,18.002049 C9,14.6281995 11.6250013,11.879141 15,12.0040981 C18.2500037,12.0040981 21,14.7531621 21,18.002049 C21,21.2509428 18.3749987,24 15,24 C11.7499963,24 9,21.3758952 9,18.002049 Z M17.6022616,18.509174 L17.6022616,18.5091603 C18.1022622,18.2592454 18.1022622,17.5095037 17.6022616,17.2595892 L14.1022644,15.2602733 C13.6022639,15.0103584 12.9772649,15.3852291 12.9772649,15.8850589 L12.9772649,19.8837043 C12.9772649,20.3835327 13.6022639,20.7584044 14.1022644,20.5084898 L17.6022616,18.509174 Z" id="Combined-Shape" opacity="0.4"></path>
                                </g>
                            </g>
                        </g>
                    </g>
                </g>
            </g>
        </g>
    </g>
</svg>