<svg xmlns="http://www.w3.org/2000/svg" width="37.863" height="36.386" viewBox="0 0 37.863 36.386">
  <defs>
    <style>
      .cls-1 {
        fill: none;
      }

      .cls-2, .cls-3 {
        stroke: none;
      }

      .cls-3 {
        fill: #aeadb2;
      }
    </style>
  </defs>
  <g id="收_藏" data-name="收 藏" class="cls-1" transform="translate(-64.1 -81.575)">
    <path class="cls-2" d="M93.216,117.961a3.062,3.062,0,0,1-1.3-.341l-8.875-4.437L74.1,117.619a2.722,2.722,0,0,1-2.867-.2,2.822,2.822,0,0,1-1.092-2.731l1.843-9.557-7.031-6.554a3,3,0,0,1-.751-2.867,2.721,2.721,0,0,1,2.253-1.911l9.762-1.775,4.369-8.874a2.785,2.785,0,0,1,2.458-1.57,2.709,2.709,0,0,1,2.458,1.57l4.369,8.874,9.762,1.707a2.634,2.634,0,0,1,2.184,1.912,2.783,2.783,0,0,1-.683,2.867L94.1,105.127l1.775,9.557a2.766,2.766,0,0,1-1.092,2.731,2.434,2.434,0,0,1-1.57.546Z"/>
    <path class="cls-3" d="M 92.8343505859375 114.7229614257812 L 91.15399169921875 105.674674987793 L 90.8551025390625 104.0652465820312 L 92.04678344726562 102.9429626464844 L 98.76123046875 96.61949920654297 L 89.35440063476562 94.97481536865234 L 87.85284423828125 94.71228790283203 L 87.17957305908203 93.34470367431641 L 83.04444122314453 84.94524383544922 L 78.90933227539062 93.34469604492188 L 78.24169158935547 94.70085906982422 L 76.75447845458984 94.97125244140625 L 67.32842254638672 96.68509674072266 L 74.03083801269531 102.9323883056641 L 75.24551391601562 104.064567565918 L 74.93106079101562 105.6950149536133 L 73.18997192382812 114.7227172851562 L 81.71089935302734 110.4947891235352 L 83.0494384765625 109.8306274414062 L 84.38594818115234 110.4988632202148 L 92.8343505859375 114.7229614257812 M 93.21603393554688 117.960693359375 L 93.21598052978516 117.960693359375 C 92.80641937255859 117.960693359375 92.32854461669922 117.8241729736328 91.91902160644531 117.6193923950195 L 83.04433441162109 113.1821517944336 L 74.10157012939453 117.6193923950195 C 73.71337127685547 117.8284149169922 73.27274322509766 117.9329376220703 72.83146667480469 117.9329605102539 C 72.26396179199219 117.9329986572266 71.69525909423828 117.7602005004883 71.23441314697266 117.4145660400391 C 70.415283203125 116.7998275756836 69.93736267089844 115.7075042724609 70.14215850830078 114.683967590332 L 71.98534393310547 105.1269073486328 L 64.95409393310547 98.57311248779297 C 64.20317077636719 97.82202911376953 63.93011093139648 96.66169738769531 64.20317077636719 95.70595550537109 C 64.54451751708984 94.68186187744141 65.3636474609375 93.93106842041016 66.4559326171875 93.79454803466797 L 76.21781921386719 92.01964569091797 L 80.58676910400391 83.14520263671875 C 81.06481170654297 82.18949890136719 82.02056884765625 81.57498168945312 83.04436492919922 81.57498168945312 C 84.06832885742188 81.57498168945312 85.09251403808594 82.18949890136719 85.50211334228516 83.14520263671875 L 89.87107849121094 92.01964569091797 L 99.63295745849609 93.72640228271484 C 100.6569290161133 93.86293792724609 101.5443801879883 94.61398315429688 101.8174285888672 95.63793182373047 C 102.1587677001953 96.661865234375 101.8857345581055 97.75413513183594 101.1348037719727 98.50510406494141 L 94.10356140136719 105.1269149780273 L 95.87840270996094 114.683967590332 C 96.08319091796875 115.7761917114258 95.60536193847656 116.8002471923828 94.78617858886719 117.4145660400391 C 94.37660980224609 117.7559661865234 93.83051300048828 117.960693359375 93.21603393554688 117.960693359375 Z"/>
  </g>
</svg>
