<svg xmlns="http://www.w3.org/2000/svg" width="37.863" height="36.386" viewBox="0 0 37.863 36.386">
  <g id="收_藏" data-name="收 藏" transform="translate(-64.1 -81.575)" fill="#0077c2">
    <path d="M 93.21603393554688 116.460693359375 C 93.09064483642578 116.460693359375 92.84122467041016 116.4034576416016 92.58988952636719 116.2777862548828 L 83.71514129638672 111.8405075073242 L 83.04688262939453 111.5063858032227 L 82.37762451171875 111.8384628295898 L 73.43486022949219 116.2757034301758 L 73.41246795654297 116.2868118286133 L 73.39046478271484 116.2986679077148 C 73.22731018066406 116.3865127563477 73.03398132324219 116.4329528808594 72.83136749267578 116.4329681396484 C 72.56973266601562 116.432975769043 72.32221221923828 116.3554153442383 72.13442230224609 116.2145767211914 C 71.74726104736328 115.9240264892578 71.52783203125 115.4039688110352 71.61301422119141 114.9782638549805 L 71.61402893066406 114.97314453125 L 71.61502075195312 114.9680252075195 L 73.45819854736328 105.4109649658203 L 73.61541748046875 104.5957336425781 L 73.00809478759766 104.0296478271484 L 66.00010681152344 97.49753570556641 C 65.67172241210938 97.15721130371094 65.52193450927734 96.59819030761719 65.63740539550781 96.14776611328125 C 65.74542236328125 95.84425354003906 66.01420593261719 95.36141967773438 66.64196014404297 95.28296661376953 L 66.68328857421875 95.27779388427734 L 66.72425842285156 95.27034759521484 L 76.48615264892578 93.49544525146484 L 77.22975158691406 93.36024475097656 L 77.56358337402344 92.68217468261719 L 81.93011474609375 83.81263732910156 C 82.1558837890625 83.36441802978516 82.59283447265625 83.07498168945312 83.04436492919922 83.07498168945312 C 83.49797821044922 83.07498168945312 83.96186828613281 83.35920715332031 84.12339782714844 83.73609161376953 L 84.13893127441406 83.77234649658203 L 84.15634918212891 83.80773162841797 L 88.52532196044922 92.68217468261719 L 88.86196136474609 93.365966796875 L 89.61273956298828 93.49723815917969 L 99.37461853027344 95.20399475097656 L 99.40457153320312 95.209228515625 L 99.43470764160156 95.21324157714844 C 99.87247467041016 95.27161407470703 100.2562789916992 95.60518646240234 100.3680801391602 96.02442169189453 L 100.3798980712891 96.06877899169922 L 100.3944244384766 96.11231231689453 C 100.5508880615234 96.58168792724609 100.4359741210938 97.07331848144531 100.0871658325195 97.43125152587891 L 93.07517242431641 104.0349349975586 L 92.47933197021484 104.5960845947266 L 92.6287841796875 105.4007949829102 L 94.40361785888672 114.9578475952148 C 94.49320983886719 115.4356842041016 94.29962158203125 115.9045181274414 93.88623809814453 116.2145156860352 L 93.85538482666016 116.237663269043 L 93.82575225830078 116.2623519897461 C 93.67230987548828 116.3902587890625 93.45578002929688 116.460693359375 93.21603393554688 116.460693359375 Z" stroke="none"/>
    <path d="M 92.8343505859375 114.7229614257812 L 91.15399169921875 105.674674987793 L 90.8551025390625 104.0652465820312 L 92.04678344726562 102.9429626464844 L 98.76123046875 96.61949920654297 L 89.35440063476562 94.97481536865234 L 87.85284423828125 94.71228790283203 L 87.17957305908203 93.34470367431641 L 83.04444122314453 84.94524383544922 L 78.90933227539062 93.34469604492188 L 78.24169158935547 94.70085906982422 L 76.75447845458984 94.97125244140625 L 67.32842254638672 96.68509674072266 L 74.03083801269531 102.9323883056641 L 75.24551391601562 104.064567565918 L 74.93106079101562 105.6950149536133 L 73.18997192382812 114.7227172851562 L 81.71089935302734 110.4947891235352 L 83.0494384765625 109.8306274414062 L 84.38594818115234 110.4988632202148 L 92.8343505859375 114.7229614257812 M 93.21603393554688 117.960693359375 L 93.21598052978516 117.960693359375 C 92.80641937255859 117.960693359375 92.32854461669922 117.8241729736328 91.91902160644531 117.6193923950195 L 83.04433441162109 113.1821517944336 L 74.10157012939453 117.6193923950195 C 73.71337127685547 117.8284149169922 73.27274322509766 117.9329376220703 72.83146667480469 117.9329605102539 C 72.26396179199219 117.9329986572266 71.69525909423828 117.7602005004883 71.23441314697266 117.4145660400391 C 70.415283203125 116.7998275756836 69.93736267089844 115.7075042724609 70.14215850830078 114.683967590332 L 71.98534393310547 105.1269073486328 L 64.95409393310547 98.57311248779297 C 64.20317077636719 97.82202911376953 63.93011093139648 96.66169738769531 64.20317077636719 95.70595550537109 C 64.54451751708984 94.68186187744141 65.3636474609375 93.93106842041016 66.4559326171875 93.79454803466797 L 76.21781921386719 92.01964569091797 L 80.58676910400391 83.14520263671875 C 81.06481170654297 82.18949890136719 82.02056884765625 81.57498168945312 83.04436492919922 81.57498168945312 C 84.06832885742188 81.57498168945312 85.09251403808594 82.18949890136719 85.50211334228516 83.14520263671875 L 89.87107849121094 92.01964569091797 L 99.63295745849609 93.72640228271484 C 100.6569290161133 93.86293792724609 101.5443801879883 94.61398315429688 101.8174285888672 95.63793182373047 C 102.1587677001953 96.661865234375 101.8857345581055 97.75413513183594 101.1348037719727 98.50510406494141 L 94.10356140136719 105.1269149780273 L 95.87840270996094 114.683967590332 C 96.08319091796875 115.7761917114258 95.60536193847656 116.8002471923828 94.78617858886719 117.4145660400391 C 94.37660980224609 117.7559661865234 93.83051300048828 117.960693359375 93.21603393554688 117.960693359375 Z" stroke="none" fill="#0077c2"/>
  </g>
</svg>
