<svg xmlns="http://www.w3.org/2000/svg" xmlns:xlink="http://www.w3.org/1999/xlink" width="82" height="82" viewBox="0 0 82 82">
  <defs>
    <style>
      .cls-1 {
        fill: url(#radial-gradient);
      }

      .cls-2, .cls-3 {
        fill: #fff;
      }

      .cls-3 {
        opacity: 0.8;
      }
    </style>
    <radialGradient id="radial-gradient" cx="0.5" cy="0.5" r="0.5" gradientUnits="objectBoundingBox">
      <stop offset="0" stop-color="#9e4adb"/>
      <stop offset="1" stop-color="#e9adff"/>
    </radialGradient>
  </defs>
  <g id="组_794" data-name="组 794" transform="translate(-581 -449)">
    <circle id="椭圆_6105" data-name="椭圆 6105" class="cls-1" cx="41" cy="41" r="41" transform="translate(581 449)"/>
    <g id="组_774" data-name="组 774" transform="translate(73.222 -1143.096)">
      <path id="路径_4968" data-name="路径 4968" class="cls-2" d="M156.528,105.614l9.221,6.916v13.63H128v-13.63l9.368-7.029a14.435,14.435,0,0,1-3.077-8.818c0-7.525,5.058-12.583,12.583-12.583s12.583,5.058,12.583,12.583A14.339,14.339,0,0,1,156.528,105.614Zm-24.335,16.353h29.358v-7.338l-7.54-5.657a4.29,4.29,0,0,1-1.656-2.807,4.053,4.053,0,0,1,.777-3.028,10.443,10.443,0,0,0,2.133-6.449c0-5.254-3.136-8.39-8.39-8.39s-8.39,3.136-8.39,8.39a10.045,10.045,0,0,0,2.251,6.242,4.109,4.109,0,0,1,.826,3.087,4.284,4.284,0,0,1-1.671,2.841l-7.7,5.77Z" transform="translate(401.851 1525.532)"/>
      <path id="路径_4969" data-name="路径 4969" class="cls-3" d="M144.4,105.611a2.1,2.1,0,0,0-2.1,2.1v8.39H146.5v-8.39S145.565,105.611,144.4,105.611Z" transform="translate(404.321 1529.245)"/>
    </g>
  </g>
</svg>
