<svg xmlns="http://www.w3.org/2000/svg" width="24" height="24" viewBox="0 0 24 24">
  <defs>
    <style>
      .cls-1 {
        fill: #2f92ee;
      }

      .cls-2 {
        fill: #63f7de;
      }
    </style>
  </defs>
  <g id="组_786" data-name="组 786" transform="translate(-0.384 -0.07)">
    <path id="路径_5019" data-name="路径 5019" class="cls-1" d="M77.872,84.558h-4a9.608,9.608,0,0,1-10-10c0-5.851,4.122-11,10-11a11.281,11.281,0,0,1,11,11v3h-2v-3a9.465,9.465,0,0,0-9-9c-4.637,0-8,4.363-8,9a7.736,7.736,0,0,0,8,8h4Z" transform="translate(-63.488 -63.488)"/>
    <path id="路径_5020" data-name="路径 5020" class="cls-1" d="M571.406,573.66l2-1,9,9-2,1Z" transform="translate(-558.022 -558.59)"/>
    <path id="路径_5021" data-name="路径 5021" class="cls-2" d="M239.264,216.047h-2a4.784,4.784,0,0,0-5-5v-2A7.062,7.062,0,0,1,239.264,216.047Zm-9,5a3.666,3.666,0,0,1-3-2c-.745-1.242-1.414-2.924-1-4l2,1a2.377,2.377,0,0,0,0,2c.635,1.049,1.393,1.917,2,2Z" transform="translate(-221.88 -204.977)"/>
  </g>
</svg>
