<svg xmlns="http://www.w3.org/2000/svg" width="24.77" height="25.4" viewBox="0 0 24.77 25.4">
  <defs>
    <style>
      .cls-1 {
        fill: #0077c2;
      }
    </style>
  </defs>
  <path id="路径_5013" data-name="路径 5013" class="cls-1" d="M136.533,147v-1.4H161.3V147Zm22.111-17.773-5.738-5.6,1.4-1.4a2.2,2.2,0,0,1,3.079,0l2.519,2.519a2.2,2.2,0,0,1,0,3.079ZM145.77,141.682a2.256,2.256,0,0,1-.98.56l-6.018,1.819h-.42a.8.8,0,0,1-.56-.98l1.679-5.878a2.256,2.256,0,0,1,.56-.98Zm.98-.98-5.738-5.6,10.776-10.356,5.738,5.6Z" transform="translate(-136.533 -121.6)"/>
</svg>
