<svg xmlns="http://www.w3.org/2000/svg" width="23.796" height="23.666" viewBox="0 0 23.796 23.666">
  <defs>
    <style>
      .cls-1 {
        fill: #aeadb2;
      }
    </style>
  </defs>
  <path id="笔" class="cls-1" d="M171.716,149.867a3.875,3.875,0,0,0-.167-.569,6.031,6.031,0,0,0-1.071-1.556,4.908,4.908,0,0,0-1.255-1.038,6.308,6.308,0,0,0-.636-.251,2.939,2.939,0,0,0-.753-.117,2.646,2.646,0,0,0-.8.1,2.4,2.4,0,0,0-.787.418c-.2.167-.452.385-.736.669-.3.285-.552.519-.77.72l5.054,5.054a2.848,2.848,0,0,0,.4-.385c.134-.134.268-.268.452-.435.167-.167.368-.351.586-.569a2.291,2.291,0,0,0,.435-.669,2.091,2.091,0,0,0,.134-.7A4.575,4.575,0,0,0,171.716,149.867Zm-9.02.385-9.974,9.974c-.6.6-1.088,1.088-1.489,1.506-.4.4-.653.669-.753.77a4.771,4.771,0,0,0-.586.686,5.253,5.253,0,0,0-.368.686,7.959,7.959,0,0,0-.351.887c-.151.435-.3.9-.452,1.422-.151.5-.285.987-.435,1.489a8.951,8.951,0,0,0-.251,1.088,1.293,1.293,0,0,0,.134,1c.167.2.485.268.971.218a9.645,9.645,0,0,0,1.071-.251c.469-.134.987-.268,1.506-.452.536-.167,1.038-.351,1.523-.519q.728-.276,1.1-.452a3.041,3.041,0,0,0,.736-.435c.234-.184.435-.351.619-.519a8.642,8.642,0,0,0,.669-.653l1.439-1.439c.569-.586,1.222-1.222,1.941-1.925l2.159-2.192,5.807-5.807Zm-2.544,16.685a1.489,1.489,0,1,0,1.489,1.489A1.493,1.493,0,0,0,160.152,166.937Zm4.284,0a1.489,1.489,0,1,0,1.489,1.489A1.493,1.493,0,0,0,164.436,166.937Zm4.267,0a1.489,1.489,0,1,0,1.489,1.489A1.493,1.493,0,0,0,168.7,166.937Z" transform="translate(-148.003 -146.333)"/>
</svg>
