<?xml version="1.0" encoding="UTF-8"?>
<svg width="54px" height="54px" viewBox="0 0 54 54" version="1.1" xmlns="http://www.w3.org/2000/svg" xmlns:xlink="http://www.w3.org/1999/xlink">
    <!-- Generator: Sketch 51.3 (57544) - http://www.bohemiancoding.com/sketch -->
    <title>我要直播@2x</title>
    <desc>Created with Sketch.</desc>
    <defs></defs>
    <g id="汇·直播" stroke="none" stroke-width="1" fill="none" fill-rule="evenodd">
        <g id="标签icon" transform="translate(-348.000000, -248.000000)" fill="#777777">
            <g id="底部标签/4选项" transform="translate(0.000000, 242.000000)">
                <g id="我要直播" transform="translate(348.000000, 6.000000)">
                    <g id="我要直播-未选中">
                        <g id="我要直播">
                            <g id="直播" transform="translate(14.000000, 18.000000)" fill-rule="nonzero">
                                <path d="M32.7364199,18.8138753 C32.7360699,19.3086112 32.3846695,19.7213317 31.916544,19.8191871 C28.8556161,18.27021 25.4324446,16.2674892 24.7693579,15.5150883 L24.7693579,8.41348006 C25.4324344,7.66213449 28.8556127,5.65837216 31.9098789,4.10835005 C32.3799288,4.20391816 32.7362285,4.61928002 32.7362285,5.11577591 L32.7362285,18.8140575 L32.7364035,18.8140575 L32.7364199,18.8138753 Z M22.7036446,20.4462772 C22.7036446,21.0140532 22.2411177,21.4742937 21.670617,21.4742937 L3.46953626,21.4742937 C2.90061129,21.4742937 2.43650869,21.0137025 2.43650869,20.4462772 L2.43650869,3.48425745 C2.43650869,2.91788741 2.90025923,2.45641625 3.46953626,2.45641625 L21.6707879,2.45641625 C22.2409399,2.45641625 22.7038155,2.91806616 22.7038155,3.48425745 L22.7036405,20.4462772 L22.7036446,20.4462772 Z M31.7035428,2.03277138 L31.4576675,2.03277138 L31.2385672,2.14259551 C28.0210141,3.75968677 26.0181266,4.93589407 24.769336,5.80549665 L24.769336,3.48422926 C24.769336,1.78406728 23.3789594,0.400355045 21.6704311,0.400355045 L3.46952122,0.400355045 C1.76099287,0.400355045 0.370793986,1.78389197 0.370793986,3.48422926 L0.370793986,20.4464209 C0.370793986,22.1465828 1.7611706,23.5302951 3.46952122,23.5302951 L21.6707729,23.5302951 C23.3794755,23.5302951 24.7696778,22.1467582 24.7696778,20.4464209 L24.7696778,18.1240982 C26.0183043,18.9935392 28.0203066,20.1699252 31.238909,21.7868274 L31.4580093,21.8968276 L31.7038845,21.8968276 C33.4125872,21.8968276 34.8027895,20.5132906 34.8027895,18.8129533 L34.8027895,5.11663116 C34.8024395,3.41629387 33.4120643,2.03275694 31.7035359,2.03275694 L31.7035428,2.03277138 Z" id="Shape"></path>
                                <path d="M16,12.056033 C16,13.191585 16.9248761,14.112066 18.0658774,14.112066 C19.2068787,14.112066 20.1315805,13.1914097 20.1315805,12.056033 C20.1315805,10.9204811 19.2068787,10 18.0658774,10 C16.9248761,10 16,10.9204811 16,12.056033 Z" id="Path" opacity="0.6"></path>
                            </g>
                        </g>
                    </g>
                </g>
            </g>
        </g>
    </g>
</svg>