<?xml version="1.0" encoding="UTF-8"?>
<svg width="54px" height="54px" viewBox="0 0 54 54" version="1.1" xmlns="http://www.w3.org/2000/svg" xmlns:xlink="http://www.w3.org/1999/xlink">
    <!-- Generator: Sketch 51.3 (57544) - http://www.bohemiancoding.com/sketch -->
    <title>直播回放@2x</title>
    <desc>Created with Sketch.</desc>
    <defs></defs>
    <g id="汇·直播" stroke="none" stroke-width="1" fill="none" fill-rule="evenodd">
        <g id="标签icon" transform="translate(-498.000000, -248.000000)" fill="#777777">
            <g id="底部标签/4选项" transform="translate(0.000000, 242.000000)">
                <g id="直播回放" transform="translate(498.000000, 6.000000)">
                    <g id="直播回放-未选中">
                        <g id="直播回放">
                            <g id="Group" transform="translate(12.000000, 14.000000)" fill-rule="nonzero">
                                <path d="M12.6561007,20.9677192 C12.3904906,20.9677192 12.1248805,20.8824559 11.9478071,20.7971927 C10.0885367,19.9445601 10,16.0224503 10,14.8287647 C10,13.3792893 10.1770734,9.96875901 11.9478071,9.2013897 C12.3904906,8.94559993 13.1873208,8.77507341 15.0465912,9.71296924 C17.1714718,10.7361283 20.6244026,13.2087628 20.6244026,15.3403442 C20.6244026,17.3866624 15.6663481,19.8592968 15.400738,20.0298234 C14.0726877,20.7119294 13.1873208,20.9677192 12.6561007,20.9677192 Z M12.7446373,19.262454 L12.8557485,19.3715449 C12.8557485,19.3715449 12.8557485,19.262454 12.7446373,19.262454 Z M12.7446373,10.7361283 C12.4790273,10.8213916 11.8592705,11.7592874 11.7707338,14.0613954 C11.5936604,17.0456094 12.3019539,19.0066643 12.7446373,19.262454 C14.1612244,19.262454 18.6765955,16.1929768 18.8536688,15.3403442 C18.8536688,14.9992912 18.4109854,14.3171851 17.3485451,13.294026 C15.5778114,11.7592874 13.3643942,10.7361283 12.7446373,10.7361283 Z" id="Shape" opacity="0.6"></path>
                                <path d="M1.92725867,17.1534771 C2.4933395,16.9401691 2.91802087,17.1178797 3.20130277,17.6866088 C4.58145624,22.7674646 9.11522013,26.3473089 14.3373037,26.3473089 C20.7196261,26.3473089 25.8934208,21.044912 25.8934208,14.5018482 C25.8934208,7.9587844 20.7196261,2.65454852 14.3373037,2.65454852 C9.38414821,2.64355511 4.97519933,5.89411206 3.37650237,10.7355269 L1.38135587,10.0505732 C3.23348184,4.39002636 8.4215881,0.5 14.3372862,0.5 C21.879877,0.5 27.9958241,6.76797646 27.9958241,14.5 C27.9958241,22.2320235 21.879877,28.5 14.3372862,28.5 C8.16592718,28.5 2.8097804,24.2684362 1.17932616,18.2626126 C1.111867,17.7364969 1.36117783,17.366785 1.92725867,17.1534771 Z M1.97822569,7.86433078 L4.57269319,9.38858157 C5.04887916,9.66834104 5.20811431,10.2811559 4.92835484,10.7573419 C4.83179864,10.9216927 4.69028089,11.0550234 4.52047418,11.1416258 L2.49542499,12.1744131 C2.00343135,12.4253328 1.40118109,12.2299038 1.15026138,11.7379101 C1.11196969,11.6628293 1.08332336,11.5832087 1.06500371,11.5009422 L0.495585401,8.94390421 C0.375539432,8.40482406 0.715233754,7.87049677 1.25431391,7.7504508 C1.50133465,7.69544257 1.76002472,7.73613761 1.97822569,7.86433078 Z" id="Shape"></path>
                            </g>
                        </g>
                    </g>
                </g>
            </g>
        </g>
    </g>
</svg>