<?xml version="1.0" encoding="UTF-8"?>
<svg width="54px" height="54px" viewBox="0 0 54 54" version="1.1" xmlns="http://www.w3.org/2000/svg" xmlns:xlink="http://www.w3.org/1999/xlink">
    <!-- Generator: Sketch 51.3 (57544) - http://www.bohemiancoding.com/sketch -->
    <title>直播预告@2x</title>
    <desc>Created with Sketch.</desc>
    <defs></defs>
    <g id="汇·直播" stroke="none" stroke-width="1" fill="none" fill-rule="evenodd">
        <g id="标签icon" transform="translate(-48.000000, -248.000000)" fill="#777777">
            <g id="底部标签/4选项" transform="translate(0.000000, 242.000000)">
                <g id="直播预告" transform="translate(48.000000, 6.000000)">
                    <g id="直播预告-未选中">
                        <g id="直播预告">
                            <g transform="translate(13.000000, 10.000000)" fill-rule="nonzero" id="喇叭">
                                <g>
                                    <g id="Group" transform="translate(2.000000, 2.000000)">
                                        <path d="M18.7538598,31 C18.3946413,31 18.0803262,30.8671429 17.8109146,30.601429 C17.8109146,30.601429 7.57323631,25.287139 7.43851669,25.287139 L3.44223364,25.287139 C1.96046208,25.287139 0.748105205,24.091426 0.748105205,22.629997 L0.748105205,8.98999697 C0.748105205,7.52856797 1.96046208,6.33285498 3.39733324,6.33285498 L7.43852283,6.33285498 L17.8109207,0.398564941 C18.0354316,0.132850742 18.3946474,-6.0546875e-06 18.753866,-6.0546875e-06 C19.4723,-6.0546875e-06 20.1009302,0.575706934 20.1009302,1.32856494 L20.1009302,29.6714351 C20.1009302,30.4242931 19.5172035,31.0000061 18.753866,31.0000061 L18.7538598,31 Z M17.855818,3.1 L8.83049359,8.14858008 C8.42637463,8.41429428 7.9773522,8.59143809 7.52832977,8.59143809 L3.48714018,8.59143809 C3.26262928,8.59143809 3.03811775,8.76858099 3.03811775,9.03429609 L3.03811775,22.7185861 C3.03811775,22.9400148 3.21772642,23.1614441 3.48714018,23.1614441 L7.48342323,23.1614441 C7.75283607,23.1614441 8.02224953,23.2057299 8.29166115,23.2943012 C8.65087971,23.4714441 17.0026705,27.4571714 17.9007092,28.0328813 L17.855807,3.1000112 L17.855818,3.1 Z" id="Shape"></path>
                                        <path d="M28.318032,24.0028701 C28.0935211,24.2242988 27.8241092,24.3571571 27.5097941,24.3571571 C27.195479,24.3571572 26.9260674,24.2243 26.7015562,24.0471571 C26.2525338,23.6042991 26.2525338,22.9400151 26.7015562,22.4971571 C30.6529327,18.6000272 30.7876523,12.3557372 26.8811649,8.41428701 L26.656654,8.19285831 C26.2076315,7.7500003 26.2076315,7.08571632 26.656654,6.64285831 C27.1056764,6.2000003 27.8241104,6.2000003 28.2731329,6.64285831 C33.1225788,11.2928583 33.2123612,18.9985683 28.4976438,23.7814384 C28.4976438,23.8700097 28.4078396,23.9142955 28.3180351,24.0028671 L28.318032,24.0028701 Z" id="Shape" opacity="0.6"></path>
                                        <path d="M24.0523404,20.9028701 C23.8278295,21.1242988 23.5584176,21.2128701 23.2441025,21.2128701 C22.9297874,21.2128701 22.6603758,21.080013 22.4358646,20.9028701 C21.9868422,20.5042991 21.9868422,19.8400121 22.3909624,19.3971571 L22.4358646,19.3528713 C24.5911667,17.3600133 24.7258741,14.0385813 22.7052775,11.9128713 L22.4358646,11.6471571 C21.9868422,11.2485861 21.9868422,10.5842991 22.3909624,10.1414441 L22.4358646,10.0971583 C22.884887,9.65430033 23.6033211,9.65430033 24.0523435,10.0971583 C27.060787,12.8871583 27.2404009,17.5371583 24.4115621,20.5485783 C24.2768556,20.6371496 24.1870512,20.770007 24.0523435,20.9028653 L24.0523404,20.9028701 Z" id="Path"></path>
                                    </g>
                                </g>
                            </g>
                        </g>
                    </g>
                </g>
            </g>
        </g>
    </g>
</svg>