<?xml version="1.0" encoding="UTF-8"?>
<svg width="54px" height="54px" viewBox="0 0 54 54" version="1.1" xmlns="http://www.w3.org/2000/svg" xmlns:xlink="http://www.w3.org/1999/xlink">
    <!-- Generator: Sketch 51.3 (57544) - http://www.bohemiancoding.com/sketch -->
    <title>直播预告@2x</title>
    <desc>Created with Sketch.</desc>
    <defs></defs>
    <g id="汇·直播" stroke="none" stroke-width="1" fill="none" fill-rule="evenodd">
        <g id="标签icon" transform="translate(-48.000000, -79.000000)">
            <g id="底部标签/4选项-copy" transform="translate(0.000000, 73.000000)">
                <g id="直播预告" transform="translate(48.000000, 6.000000)">
                    <g id="喇叭">
                        <g>
                            <g transform="translate(6.000000, 12.000000)" fill-rule="nonzero">
                                <g>
                                    <g id="Group">
                                        <path d="M0,11.1714221 L1.2976936e-13,11.1714238 C9.41979942e-07,17.3412285 5.05725665,22.3428477 11.2956936,22.3428477 C17.5341306,22.3428467 22.5913873,17.3412285 22.5913873,11.1714238 C22.5913873,5.00161914 17.5341306,0 11.2956936,0 C5.05725665,1.88737847e-15 1.29769443e-13,5.00161914 1.29769443e-13,11.1714238 L0,11.1714221 Z" id="Shape" fill="#60B2F6"></path>
                                        <path d="M27.6774883,32.9999939 C27.3248188,32.9999939 27.016234,32.8671369 26.7517341,32.6014231 C26.7517341,32.6014231 16.7007009,27.2871351 16.5684373,27.2871351 L12.6450113,27.2871351 C11.1902542,27.2871351 10,26.0914226 10,24.6299942 L10,10.9899995 C10,9.52857108 11.1902542,8.33285856 12.6009295,8.33285856 L16.5684434,8.33285856 L26.7517401,2.39857084 C26.9721579,2.13285674 27.3248248,2 27.6774944,2 C28.3828305,2 29,2.57571276 29,3.32857048 L29,31.6714295 C29,32.4242872 28.4269153,33 27.6774944,33 L27.6774883,32.9999939 Z M26.7958189,5.10000484 L17.9350369,10.1485829 C17.5382855,10.414297 17.0974492,10.5914408 16.656613,10.5914408 L12.6890991,10.5914408 C12.4686813,10.5914408 12.2482629,10.7685836 12.2482629,11.0342986 L12.2482629,24.7185833 C12.2482629,24.9400119 12.4245971,25.1614411 12.6890991,25.1614411 L16.6125252,25.1614411 C16.8770263,25.1614411 17.141528,25.2057269 17.406028,25.2942982 C17.7586975,25.471441 25.9582253,29.4571667 26.8398917,30.0328764 L26.7958081,5.10001604 L26.7958189,5.10000484 Z" id="Shape" fill="#576B95"></path>
                                        <path d="M37.1207862,25.6466247 C36.8824954,25.8674836 36.5965476,26 36.2629406,26 C35.9293336,26 35.6433862,25.8674848 35.405095,25.6907978 C34.9285126,25.2490795 34.9285126,24.586505 35.405095,24.1447867 C39.5989974,20.257686 39.7419858,14.0294656 35.5957276,10.0981587 L35.3574368,9.87729983 C34.8808544,9.43558151 34.8808544,8.77300706 35.3574368,8.33128874 C35.8340191,7.88957042 36.5965489,7.88957042 37.0731312,8.33128874 C42.2202244,12.969322 42.3155174,20.6552014 37.3114221,25.4257629 C37.3114221,25.5141062 37.2161059,25.5582781 37.1207895,25.6466217 L37.1207862,25.6466247 Z" id="Shape" fill="#576B95" opacity="0.6"></path>
                                        <path d="M32.8087972,21.7021276 C32.6015084,21.9148937 32.3527629,22 32.0625588,22 C31.7723547,22 31.5236095,21.8723404 31.3163205,21.7021276 C30.9017424,21.3191492 30.9017424,20.68085 31.2748627,20.2553201 L31.3163205,20.2127668 C33.3062904,18.2978721 33.4306644,15.1063789 31.5650668,13.0638295 L31.3163205,12.8085104 C30.9017424,12.425532 30.9017424,11.7872328 31.2748627,11.3617029 L31.3163205,11.3191496 C31.7308986,10.8936168 32.3942219,10.8936168 32.8088,11.3191496 C35.5864672,14.0000011 35.752303,18.4680869 33.1404631,21.3616961 C33.0160899,21.4468024 32.9331743,21.5744622 32.8088,21.702123 L32.8087972,21.7021276 Z" id="Path" fill="#576B95"></path>
                                    </g>
                                </g>
                            </g>
                        </g>
                    </g>
                </g>
            </g>
        </g>
    </g>
</svg>